<svg id="Group_185" data-name="Group 185" xmlns="http://www.w3.org/2000/svg" width="208.93" height="74.902" viewBox="0 0 208.93 74.902">
  <path id="Path_801" data-name="Path 801" d="M1648.527-309.347c-.157,0-.314-.008-.472-.008H1580.81v-3.552h14.869v-28.768c-.586.438-1.157.863-1.727,1.29q-2.324,1.741-4.647,3.483c-1.132.848-2.272,1.687-3.4,2.547-.253.193-.441.256-.708.03a5.406,5.406,0,0,0-.92-.647c-.329-.177-.276-.445-.239-.707q.218-1.508.464-3.013c.153-.937.31-1.874.485-2.807q.348-1.853.729-3.7c.213-1.036.421-2.075.679-3.1.52-2.073,1.041-4.145,1.62-6.2.421-1.5.891-2.979,1.416-4.441.634-1.763,1.308-3.515,2.042-5.238.615-1.445,1.291-2.869,2.027-4.255a41.023,41.023,0,0,1,3.758-5.891,30.788,30.788,0,0,1,3.4-3.781,23.163,23.163,0,0,1,4.4-3.249,20.33,20.33,0,0,1,4.1-1.77,15.4,15.4,0,0,1,3.526-.723c1.384-.081,2.774-.172,4.157-.122a17.889,17.889,0,0,1,4.139.706,18.371,18.371,0,0,1,4.339,1.789,27.8,27.8,0,0,1,3.229,2.2,22.412,22.412,0,0,1,2.7,2.5,45.387,45.387,0,0,1,3.007,3.685,40.65,40.65,0,0,1,4.1,7.123c.819,1.783,1.553,3.608,2.264,5.437.538,1.386,1.012,2.8,1.455,4.219.5,1.6.948,3.212,1.382,4.828q.535,1.994.982,4.013c.328,1.463.62,2.934.911,4.4.237,1.2.462,2.405.667,3.612.159.937.277,1.882.417,2.822.129.863.276,1.724.394,2.589.108.791.185,1.585.28,2.377.108.9.232,1.8.329,2.7.084.773.136,1.55.211,2.324.084.873.184,1.743.263,2.616.059.654.1,1.31.14,1.966.072,1.2.135,2.4.2,3.607.042.734.1,1.468.13,2.2.035.85.047,1.7.074,2.552a.5.5,0,0,0,.073.164Zm-44.254-32.474v-.389c0-1.789.005-3.578-.006-5.366a.473.473,0,0,1,.3-.5c.329-.158.65-.332.969-.51,1.466-.821,2.927-1.65,4.394-2.468.907-.506,1.825-.994,2.734-1.5q2.3-1.28,4.6-2.572c.9-.5,1.788-1.015,2.688-1.512a.488.488,0,0,1,.333-.033q1.768.482,3.531.985c2.223.635,4.443,1.281,6.667,1.916q4.844,1.383,9.691,2.755c.387.11.777.209,1.191.32a1.256,1.256,0,0,0,0-.279c-.438-1.535-.842-3.082-1.332-4.6-.565-1.752-1.18-3.489-1.821-5.214a52.221,52.221,0,0,0-2.838-6.314,38.646,38.646,0,0,0-2.912-4.781,39.242,39.242,0,0,0-2.5-3.109,29.972,29.972,0,0,0-2.479-2.36,16.755,16.755,0,0,0-3.947-2.605,28.513,28.513,0,0,0-3.107-1.211,13.778,13.778,0,0,0-3.773-.672,19.641,19.641,0,0,0-5.029.318,18.88,18.88,0,0,0-5.252,1.949,20.909,20.909,0,0,0-5.179,4.071c-.763.824-1.506,1.67-2.207,2.547a34.706,34.706,0,0,0-3.643,5.725c-.617,1.189-1.212,2.392-1.74,3.622-.7,1.62-1.345,3.263-1.959,4.916-.472,1.27-.878,2.565-1.279,3.859-.365,1.178-.716,2.363-1.013,3.559-.535,2.16-1.038,4.328-1.529,6.5-.241,1.065-.434,2.14-.634,3.214-.188,1.009-.363,2.02-.532,3.032-.082.488-.139.981-.212,1.5.064-.038.1-.057.136-.08q2.281-1.506,4.562-3.014c1.556-1.033,3.107-2.072,4.662-3.1a.509.509,0,0,1,.3-.122c.521.084,1.038.194,1.556.294.985.19,1.97.384,2.956.567C1601.815-342.26,1603.019-342.048,1604.273-341.821Zm12.2,2.291v26.6h3.3v-42.1c-.123.056-.227.092-.32.147q-2.13,1.247-4.257,2.5c-1.152.677-2.3,1.358-3.455,2.032-1,.585-2.01,1.157-3.01,1.743q-1.272.745-2.528,1.516a.459.459,0,0,0-.186.333c0,.423.042.846.057,1.27.027.828.043,1.656.07,2.484.015.446.034.892.073,1.337.008.1.1.248.17.265.6.131,1.211.238,1.819.348,1.411.253,2.825.5,4.234.757C1613.775-340.062,1615.1-339.8,1616.472-339.531Z" transform="translate(-1580.81 383.988)" fill="#fff"/>
  <path id="Path_802" data-name="Path 802" d="M1997.258-54.073c-.85-.182-1.718-.306-2.546-.558-2.7-.822-4.9-2.317-5.87-5.079-1.276-3.627.379-7.014,3.588-8.849a13.251,13.251,0,0,1,7.834-1.459,10.456,10.456,0,0,1,5.828,2.1c.68.541,1.268,1.2,2,1.9l-3.35,1.725a17.832,17.832,0,0,0-2.244-1.67,7.846,7.846,0,0,0-4.734-.712,8.049,8.049,0,0,0-3.184.978,4.033,4.033,0,0,0-2.211,3.823,4.089,4.089,0,0,0,2.357,3.5,8.63,8.63,0,0,0,5.146.911,6.634,6.634,0,0,0,4.495-2.046c.153-.168.275-.363.487-.647h-7.531v-2.97h11.89a6.886,6.886,0,0,1-1.562,5.558,9.89,9.89,0,0,1-6.965,3.355c-.088.008-.17.093-.255.142Z" transform="translate(-1911.94 128.975)" fill="#fff"/>
  <path id="Path_803" data-name="Path 803" d="M2600.438-53.809c-.828-.182-1.67-.317-2.481-.556-1.01-.3-2-.668-2.986-1.042-.135-.051-.31-.356-.267-.46.387-.934.819-1.849,1.257-2.815a12.815,12.815,0,0,0,5.14,1.54,19.8,19.8,0,0,0,4.193-.1,12.131,12.131,0,0,0,2.792-.731,1.141,1.141,0,0,0,.79-1.281c-.125-.651-.728-.839-1.295-.9-.823-.092-1.654-.107-2.482-.145-1.964-.092-3.934-.119-5.891-.285a5.9,5.9,0,0,1-4.064-1.77,3.618,3.618,0,0,1-.066-4.521,7.778,7.778,0,0,1,4.851-2.479,22.288,22.288,0,0,1,4.737-.387,19,19,0,0,1,7.3,1.616l-1.167,3.06a17.722,17.722,0,0,0-7.733-1.419,28.342,28.342,0,0,0-3.886.65,1.4,1.4,0,0,0-.826.469c-.192.271-.371.767-.246.994a1.55,1.55,0,0,0,.976.642,13.967,13.967,0,0,0,2.081.158c2.162.095,4.331.107,6.485.294a6.139,6.139,0,0,1,3.822,1.405,3.976,3.976,0,0,1,.049,5.472,8.822,8.822,0,0,1-4.841,2.31c-.449.1-.9.188-1.35.282Z" transform="translate(-2404.171 128.711)" fill="#fff"/>
  <path id="Path_804" data-name="Path 804" d="M2181.539-351.421v1.025q0,10.5.006,21.007c0,1.22-.5,1.81-1.757,1.766-1.6-.056-3.213-.011-4.82-.015a1.189,1.189,0,0,1-1.32-1.321q0-25.136,0-50.271a1.186,1.186,0,0,1,1.289-1.353c4.226-.013,8.454-.077,12.677.02a16.175,16.175,0,0,1,7.433,1.832,12.542,12.542,0,0,1,6.552,8.972,16.852,16.852,0,0,1,.385,3.685,15.283,15.283,0,0,1-2.471,8.547,13.228,13.228,0,0,1-4.471,3.983c-.243.139-.5.254-.811.411.5,1.458.993,2.9,1.481,4.339q2.026,5.979,4.05,11.959c.814,2.39,1.649,4.773,2.473,7.16.442,1.281-.1,2.037-1.454,2.037-1.739,0-3.478,0-5.217,0a1.3,1.3,0,0,1-1.346-.994q-2.02-5.981-4.055-11.956-1.782-5.241-3.566-10.482c-.119-.35-.21-.612-.671-.386a1.6,1.6,0,0,1-.652.031C2184.057-351.42,2182.837-351.421,2181.539-351.421Zm.022-7.093c2.564-.1,5.076.217,7.559-.4,2.453-.606,4.2-1.966,4.7-4.508a12.586,12.586,0,0,0-.08-5.341,5.314,5.314,0,0,0-3.45-3.919,14.038,14.038,0,0,0-4.646-.8c-1.352-.052-2.708-.011-4.082-.011Z" transform="translate(-2062.424 381.248)" fill="#fff"/>
  <path id="Path_805" data-name="Path 805" d="M2564.739-351.6h-12.186v.8q0,10.8,0,21.6c0,1.154-.464,1.62-1.613,1.621q-2.476,0-4.952,0a1.186,1.186,0,0,1-1.326-1.314q0-25.1,0-50.2c0-.993.429-1.432,1.427-1.437,1.65-.007,3.3,0,4.952,0a1.349,1.349,0,0,1,1.511,1.523q0,9.71,0,19.419v.819h12.186v-.78q0-9.544-.006-19.089c0-1.479.663-1.948,1.921-1.9,1.495.052,2.993.009,4.489.013a1.434,1.434,0,0,1,1.616,1.593q0,24.868,0,49.736c0,1.145-.481,1.621-1.616,1.622-1.585,0-3.17-.036-4.753.013-1.047.032-1.573-.453-1.651-1.611-.01-.154,0-.308,0-.462V-351.6Z" transform="translate(-2363.832 381.198)" fill="#fff"/>
  <path id="Path_806" data-name="Path 806" d="M2008.964-342.471c-3.505,0-6.916-.006-10.325.018a.684.684,0,0,0-.5.412c-.905,4.464-1.782,8.933-2.667,13.4a1.348,1.348,0,0,1-1.4,1.1c-1.629.006-3.258-.026-4.886.01-1.649.036-1.8-.882-1.551-2.014,1-4.659,2.08-9.3,3.112-13.956.85-3.833,1.678-7.671,2.513-11.507q1.527-7.019,3.05-14.04,1.126-5.186,2.251-10.371a1.357,1.357,0,0,1,1.3-1.068q3.7-.015,7.4,0c.792,0,1.241.461,1.43,1.329.781,3.583,1.573,7.163,2.349,10.747.813,3.753,1.6,7.512,2.423,11.263.673,3.076,1.392,6.141,2.066,9.217.821,3.751,1.606,7.511,2.425,11.263.533,2.444,1.09,4.883,1.655,7.32a1.315,1.315,0,0,1-1.394,1.806q-2.509.01-5.018,0c-.89,0-1.244-.276-1.431-1.176q-.937-4.5-1.842-9C2009.59-339.287,2009.285-340.854,2008.964-342.471Zm-9.475-7.174h8.184l-4.019-19.571-.138-.013Z" transform="translate(-1911.229 381.151)" fill="#fff"/>
  <path id="Path_807" data-name="Path 807" d="M2359.568-356.854c0,1.035-.022,2.07,0,3.1a46.5,46.5,0,0,0,1.19,10.464,9.938,9.938,0,0,0,2.626,5.06,5.264,5.264,0,0,0,3.4,1.408,6.544,6.544,0,0,0,3.956-.813,5.763,5.763,0,0,0,2.431-3.364,36.024,36.024,0,0,0,.944-4.617,19.04,19.04,0,0,0,.144-2.482c.035-1.118.447-1.541,1.548-1.541,1.673,0,3.345.008,5.018,0a1.235,1.235,0,0,1,1.354,1.349,26.23,26.23,0,0,1-1.475,9.208,13.528,13.528,0,0,1-6.989,8.1,13.806,13.806,0,0,1-4.3,1.149,15.9,15.9,0,0,1-6.833-.583,12.5,12.5,0,0,1-6.975-5.851,23.953,23.953,0,0,1-2.99-8.641,67.622,67.622,0,0,1-.781-6.913c-.159-3.09-.242-6.2-.125-9.286a47.149,47.149,0,0,1,1.251-9.392,22.969,22.969,0,0,1,3.461-8.175,11.874,11.874,0,0,1,7.968-5.035,18.557,18.557,0,0,1,4.038-.259,11.908,11.908,0,0,1,10.211,6.284,21.87,21.87,0,0,1,2.589,8.354c.089.732.224,1.462.251,2.2.043,1.145-.315,1.575-1.47,1.587-1.84.019-3.682-.042-5.521-.135-.557-.028-.795-.529-.887-1.051-.311-1.764-.519-3.553-.957-5.284a6.689,6.689,0,0,0-2.567-4.1,5.255,5.255,0,0,0-4.427-.577c-2.236.534-3.428,2.2-4.213,4.175a22.509,22.509,0,0,0-1.473,6.814c-.2,2.943-.368,5.889-.55,8.833Z" transform="translate(-2207.037 383.988)" fill="#fff"/>
  <path id="Path_808" data-name="Path 808" d="M2138.385-52.205h-4.151c-.621-1.357-1.267-2.722-1.869-4.106a1.22,1.22,0,0,0-1.315-.928c-2.262.071-4.529.025-6.872.025v4.976h-3.783V-67.09h.674c4.377,0,8.755-.019,13.132.007a4.573,4.573,0,0,1,4.489,4.482,4.875,4.875,0,0,1-1.616,4.145,13.662,13.662,0,0,1-1.241.815Zm-14.217-8.41h.709c2.7,0,5.41-.025,8.114.012a1.753,1.753,0,0,0,1.876-1.658A1.743,1.743,0,0,0,2133-63.84c-2.7.058-5.409.019-8.114.019h-.722Z" transform="translate(-2019.161 126.549)" fill="#fff"/>
  <path id="Path_809" data-name="Path 809" d="M2371.222-52.208h-3.782V-67.069c1.227,0,2.431-.014,3.634.015a.964.964,0,0,1,.531.318c1.736,1.68,3.461,3.372,5.193,5.055q1.912,1.858,3.838,3.7c.376.358.792.675,1.276,1.084V-67.036h3.782v14.862c-1.227,0-2.431.006-3.634-.008a.668.668,0,0,1-.391-.185c-.648-.588-1.295-1.177-1.922-1.788-2.109-2.055-4.2-4.124-6.316-6.175-.688-.668-1.417-1.3-2.21-2.016Z" transform="translate(-2219.858 126.53)" fill="#fff"/>
  <path id="Path_810" data-name="Path 810" d="M2254.6-52.229c-1.287,0-2.516.022-3.744-.02a.952.952,0,0,1-.615-.442c-.414-.658-.746-1.369-1.169-2.02a.991.991,0,0,0-.7-.407c-3.148-.027-6.3-.012-9.443-.025a.813.813,0,0,0-.826.495c-.359.691-.74,1.373-1.159,2.028a.88.88,0,0,1-.6.374c-1.209.035-2.419.017-3.738.017.4-.729.765-1.4,1.145-2.062q2.245-3.911,4.5-7.817c.884-1.537,1.76-3.079,2.646-4.616a.717.717,0,0,1,.718-.416c1.32.037,2.641.034,3.961,0a.864.864,0,0,1,.855.551c1.793,3.135,3.606,6.259,5.407,9.39q1.295,2.249,2.57,4.508A4.7,4.7,0,0,1,2254.6-52.229Zm-7.717-6.33-3.25-5.651-3.246,5.651Z" transform="translate(-2110.319 126.585)" fill="#fff"/>
  <path id="Path_811" data-name="Path 811" d="M2496.95-52.01h-3.92V-63.578h-6.58v-3.253H2503.5v3.2h-6.546Z" transform="translate(-2316.541 126.334)" fill="#fff"/>
</svg>
