<svg xmlns="http://www.w3.org/2000/svg" width="325.611" height="85.16" viewBox="0 0 325.611 85.16">
  <g id="Group_1539" data-name="Group 1539" transform="translate(-1429 -4158)">
    <g id="Group_1453" data-name="Group 1453" transform="translate(1429 4174.223)">
      <g id="Group_1452" data-name="Group 1452">
        <path id="Path_1952" data-name="Path 1952" d="M100.325,177.941c-4.849-.639-9.734-1.08-14.539-1.962-9.788-1.8-19-5.112-26.453-12-9.8-9.052-13.111-20.306-9.427-33.038,3.614-12.49,12.749-19.211,25.325-21.47A33.713,33.713,0,0,1,80.9,109c2.869-.025,4.51,1.226,4.652,3.368.178,2.688-1.779,3.219-3.791,3.676Q67,119.394,64.061,134.234a23.075,23.075,0,0,0,9.792,23.593,42.6,42.6,0,0,0,20.872,7.227c13.718,1.135,27.481,2.28,41.233,2.355,49.207.264,98.43.8,147.62-.173,34.785-.69,62.626-16.137,82.365-45.269.045-.066.087-.133.131-.2,1.974-2.993,4.127-3.891,6.236-2.6,2,1.223,2.3,3.9.8,6.8Q360.245,150.86,347.4,175.76a15.425,15.425,0,0,0-.748,2.181Z" transform="translate(-48.442 -109.004)" fill="#fff"/>
      </g>
    </g>
    <g id="Group_1454" data-name="Group 1454" transform="translate(1487.338 4158)">
      <path id="Path_1953" data-name="Path 1953" d="M110.789,111v1.4a5.048,5.048,0,0,1-.4,1.991,5.531,5.531,0,0,1-1.1,1.673,5.28,5.28,0,0,1-1.641,1.163,4.8,4.8,0,0,1-2.023.431,7.283,7.283,0,0,1-1.881-.255,4.452,4.452,0,0,1-1.72-.891,4.936,4.936,0,0,1-1.258-1.641,5.8,5.8,0,0,1-.494-2.565V99.816a5.511,5.511,0,0,1,.383-2.071,4.868,4.868,0,0,1,1.083-1.657,5.034,5.034,0,0,1,1.673-1.1,5.639,5.639,0,0,1,2.151-.4,4.928,4.928,0,0,1,3.728,1.5,5.346,5.346,0,0,1,1.1,1.736,5.871,5.871,0,0,1,.4,2.183v1.274h-3.25V100.2A2.633,2.633,0,0,0,107,98.542a1.756,1.756,0,0,0-1.465-.7,1.653,1.653,0,0,0-1.609.748,4.012,4.012,0,0,0-.4,1.9v11.6a3.014,3.014,0,0,0,.43,1.658,1.7,1.7,0,0,0,1.545.669,2.362,2.362,0,0,0,.685-.111,2.046,2.046,0,0,0,.685-.366,1.941,1.941,0,0,0,.477-.7,2.846,2.846,0,0,0,.191-1.115V111Z" transform="translate(-100.275 -94.59)" fill="#fff"/>
      <path id="Path_1954" data-name="Path 1954" d="M119.138,116.739v-1.658h-.064a5.969,5.969,0,0,1-1.29,1.371,3.057,3.057,0,0,1-1.831.478,4.1,4.1,0,0,1-1.164-.176,3.023,3.023,0,0,1-1.131-.654,3.1,3.1,0,0,1-.876-1.29,5.979,5.979,0,0,1-.335-2.182,11.446,11.446,0,0,1,.224-2.405,3.824,3.824,0,0,1,.828-1.737,3.462,3.462,0,0,1,1.561-1,7.978,7.978,0,0,1,2.517-.334h.35a1.787,1.787,0,0,1,.351.032,1.963,1.963,0,0,0,.383.032,3.849,3.849,0,0,1,.477.033v-1.688a2.484,2.484,0,0,0-.35-1.371,1.4,1.4,0,0,0-1.275-.541,1.839,1.839,0,0,0-1.163.414,1.967,1.967,0,0,0-.684,1.211h-3.155a5.2,5.2,0,0,1,1.465-3.5,4.621,4.621,0,0,1,1.53-1,5.26,5.26,0,0,1,2.007-.366,5.64,5.64,0,0,1,1.912.319,4.36,4.36,0,0,1,1.561.956,4.677,4.677,0,0,1,1.02,1.594,5.96,5.96,0,0,1,.383,2.23v11.247Zm0-6.947a5.391,5.391,0,0,0-.891-.095,3.2,3.2,0,0,0-1.8.493,2,2,0,0,0-.748,1.8,2.369,2.369,0,0,0,.446,1.5,1.484,1.484,0,0,0,1.243.574,1.6,1.6,0,0,0,1.291-.541,2.293,2.293,0,0,0,.461-1.53Z" transform="translate(-98.747 -93.862)" fill="#fff"/>
      <path id="Path_1955" data-name="Path 1955" d="M124.535,116.739V100.585h3.249v1.56h.064a4.632,4.632,0,0,1,1.226-1.258,3.168,3.168,0,0,1,1.832-.493,2.907,2.907,0,0,1,1.752.509,5.24,5.24,0,0,1,1.147,1.117,6.8,6.8,0,0,1,1.338-1.148,3.714,3.714,0,0,1,2.039-.477,4,4,0,0,1,1.243.207,3.027,3.027,0,0,1,1.147.684,3.576,3.576,0,0,1,.828,1.227,4.7,4.7,0,0,1,.319,1.832v12.394H137.47V105.556a2.165,2.165,0,0,0-.414-1.4,1.434,1.434,0,0,0-1.18-.51,1.369,1.369,0,0,0-1.274.574,3.2,3.2,0,0,0-.351,1.656v10.866H131V105.556a2.165,2.165,0,0,0-.414-1.4,1.432,1.432,0,0,0-1.178-.51,1.371,1.371,0,0,0-1.275.574,3.2,3.2,0,0,0-.35,1.656v10.866Z" transform="translate(-97.23 -93.862)" fill="#fff"/>
      <path id="Path_1956" data-name="Path 1956" d="M151.856,109.888H145.42v2.2a1.563,1.563,0,0,0,.43,1.178,1.607,1.607,0,0,0,1.163.414,1.279,1.279,0,0,0,1.227-.541,2.93,2.93,0,0,0,.367-1.083h3.249a4.655,4.655,0,0,1-1.306,3.441,4.6,4.6,0,0,1-1.53,1.051,5.061,5.061,0,0,1-2.008.383,4.973,4.973,0,0,1-2.6-.638,4.31,4.31,0,0,1-2.118-3.154,11.9,11.9,0,0,1-.128-1.817V106a11.912,11.912,0,0,1,.128-1.817,4.31,4.31,0,0,1,2.118-3.154,4.983,4.983,0,0,1,2.6-.637,5.175,5.175,0,0,1,2.024.382,4.537,4.537,0,0,1,1.545,1.052,5.221,5.221,0,0,1,1.274,3.6Zm-6.436-2.548h3.186v-1.848a1.967,1.967,0,0,0-.431-1.385,1.692,1.692,0,0,0-2.325,0,1.972,1.972,0,0,0-.43,1.385Z" transform="translate(-95.017 -93.862)" fill="#fff"/>
      <path id="Path_1957" data-name="Path 1957" d="M154.032,116.739V100.585h3.249v1.72a9.939,9.939,0,0,1,1.944-1.4,4.974,4.974,0,0,1,2.358-.509v3.441a2.644,2.644,0,0,0-.988-.191,3.852,3.852,0,0,0-1.1.176,2.846,2.846,0,0,0-1.068.59,3.058,3.058,0,0,0-.828,1.083,3.835,3.835,0,0,0-.319,1.657v9.59Z" transform="translate(-93.528 -93.862)" fill="#fff"/>
      <path id="Path_1958" data-name="Path 1958" d="M169.073,116.739v-1.658h-.063a5.994,5.994,0,0,1-1.291,1.371,3.057,3.057,0,0,1-1.831.478,4.1,4.1,0,0,1-1.164-.176,3.023,3.023,0,0,1-1.131-.654,3.1,3.1,0,0,1-.876-1.29,5.979,5.979,0,0,1-.335-2.182,11.446,11.446,0,0,1,.224-2.405,3.824,3.824,0,0,1,.828-1.737,3.462,3.462,0,0,1,1.561-1,7.978,7.978,0,0,1,2.517-.334h.35a1.787,1.787,0,0,1,.351.032,1.971,1.971,0,0,0,.383.032,3.849,3.849,0,0,1,.477.033v-1.688a2.484,2.484,0,0,0-.35-1.371,1.4,1.4,0,0,0-1.275-.541,1.839,1.839,0,0,0-1.163.414,1.967,1.967,0,0,0-.684,1.211h-3.155a5.2,5.2,0,0,1,1.465-3.5,4.621,4.621,0,0,1,1.53-1,5.26,5.26,0,0,1,2.007-.366,5.64,5.64,0,0,1,1.912.319,4.36,4.36,0,0,1,1.561.956,4.677,4.677,0,0,1,1.02,1.594,5.96,5.96,0,0,1,.383,2.23v11.247Zm0-6.947a5.391,5.391,0,0,0-.891-.095,3.2,3.2,0,0,0-1.8.493,2,2,0,0,0-.748,1.8,2.369,2.369,0,0,0,.446,1.5,1.485,1.485,0,0,0,1.244.574,1.6,1.6,0,0,0,1.29-.541,2.293,2.293,0,0,0,.461-1.53Z" transform="translate(-92.48 -93.862)" fill="#fff"/>
      <path id="Path_1959" data-name="Path 1959" d="M187.335,117.446v-1.467q-.319.351-.606.654a3.391,3.391,0,0,1-.637.526,3.016,3.016,0,0,1-.8.35,3.871,3.871,0,0,1-1.051.128,2.916,2.916,0,0,1-2.835-1.53,4.33,4.33,0,0,1-.415-1.338,14.217,14.217,0,0,1-.127-2.135v-6.149a25.109,25.109,0,0,1,.1-2.581,3.077,3.077,0,0,1,1.5-2.391,3.244,3.244,0,0,1,1.815-.413,3.361,3.361,0,0,1,1.705.43,3.933,3.933,0,0,1,1.29,1.226h.064v-8h3.249v22.686Zm-3.219-5.257a2.949,2.949,0,0,0,.383,1.593,1.327,1.327,0,0,0,1.211.606,1.435,1.435,0,0,0,1.178-.557,2.252,2.252,0,0,0,.447-1.45V106.1a1.768,1.768,0,0,0-.463-1.258,1.522,1.522,0,0,0-1.163-.494,1.331,1.331,0,0,0-1.258.574,2.6,2.6,0,0,0-.335,1.338Z" transform="translate(-90.161 -94.569)" fill="#fff"/>
      <path id="Path_1960" data-name="Path 1960" d="M193.011,98.01V94.76h3.249v3.25Zm0,19.435V101.292h3.249v16.153Z" transform="translate(-88.636 -94.569)" fill="#fff"/>
      <path id="Path_1961" data-name="Path 1961" d="M216.32,111v1.4a5.048,5.048,0,0,1-.4,1.991,5.51,5.51,0,0,1-1.1,1.673,5.28,5.28,0,0,1-1.641,1.163,4.8,4.8,0,0,1-2.023.431,7.275,7.275,0,0,1-1.88-.255,4.456,4.456,0,0,1-1.721-.891,4.936,4.936,0,0,1-1.258-1.641,5.8,5.8,0,0,1-.494-2.565V99.816a5.511,5.511,0,0,1,.383-2.071,4.868,4.868,0,0,1,1.083-1.657,5.046,5.046,0,0,1,1.672-1.1,5.645,5.645,0,0,1,2.152-.4,4.925,4.925,0,0,1,3.727,1.5,5.327,5.327,0,0,1,1.1,1.736,5.871,5.871,0,0,1,.4,2.183v1.274h-3.249V100.2a2.628,2.628,0,0,0-.542-1.657,1.755,1.755,0,0,0-1.464-.7,1.654,1.654,0,0,0-1.611.748,4.013,4.013,0,0,0-.4,1.9v11.6a3,3,0,0,0,.431,1.658,1.7,1.7,0,0,0,1.545.669,2.362,2.362,0,0,0,.685-.111,2.041,2.041,0,0,0,.684-.366,1.943,1.943,0,0,0,.478-.7,2.846,2.846,0,0,0,.191-1.115V111Z" transform="translate(-87.031 -94.59)" fill="#fff"/>
      <path id="Path_1962" data-name="Path 1962" d="M218.2,106a11.921,11.921,0,0,1,.127-1.817,4.319,4.319,0,0,1,2.118-3.154,5.61,5.61,0,0,1,5.193,0,4.317,4.317,0,0,1,2.119,3.154,12.058,12.058,0,0,1,.128,1.817v5.32a12.047,12.047,0,0,1-.128,1.817,4.317,4.317,0,0,1-2.119,3.154,5.6,5.6,0,0,1-5.193,0,4.319,4.319,0,0,1-2.118-3.154,11.91,11.91,0,0,1-.127-1.817Zm3.25,5.83a1.97,1.97,0,0,0,.43,1.387,1.7,1.7,0,0,0,2.325,0,1.97,1.97,0,0,0,.43-1.387v-6.34a1.967,1.967,0,0,0-.43-1.385,1.692,1.692,0,0,0-2.325,0,1.967,1.967,0,0,0-.43,1.385Z" transform="translate(-85.475 -93.862)" fill="#fff"/>
      <path id="Path_1963" data-name="Path 1963" d="M230.066,116.739V100.585h3.249v1.56h.064a4.652,4.652,0,0,1,1.227-1.258,3.163,3.163,0,0,1,1.832-.493,2.909,2.909,0,0,1,1.752.509,5.29,5.29,0,0,1,1.147,1.117,6.8,6.8,0,0,1,1.338-1.148,3.712,3.712,0,0,1,2.039-.477,4,4,0,0,1,1.241.207,3.031,3.031,0,0,1,1.148.684,3.592,3.592,0,0,1,.828,1.227,4.7,4.7,0,0,1,.317,1.832v12.394H243V105.556a2.158,2.158,0,0,0-.415-1.4,1.432,1.432,0,0,0-1.178-.51,1.369,1.369,0,0,0-1.274.574,3.2,3.2,0,0,0-.351,1.656v10.866h-3.25V105.556a2.165,2.165,0,0,0-.414-1.4,1.429,1.429,0,0,0-1.178-.51,1.371,1.371,0,0,0-1.274.574,3.2,3.2,0,0,0-.351,1.656v10.866Z" transform="translate(-83.986 -93.862)" fill="#fff"/>
      <path id="Path_1964" data-name="Path 1964" d="M247.957,116.739V100.585h3.249v1.56h.063a4.652,4.652,0,0,1,1.227-1.258,3.167,3.167,0,0,1,1.832-.493,2.913,2.913,0,0,1,1.753.509,5.259,5.259,0,0,1,1.146,1.117,6.8,6.8,0,0,1,1.339-1.148,3.707,3.707,0,0,1,2.038-.477,4,4,0,0,1,1.243.207,3.018,3.018,0,0,1,1.147.684,3.594,3.594,0,0,1,.829,1.227,4.717,4.717,0,0,1,.317,1.832v12.394h-3.249V105.556a2.165,2.165,0,0,0-.414-1.4,1.434,1.434,0,0,0-1.18-.51,1.369,1.369,0,0,0-1.274.574,3.2,3.2,0,0,0-.35,1.656v10.866h-3.25V105.556a2.165,2.165,0,0,0-.414-1.4,1.43,1.43,0,0,0-1.178-.51,1.371,1.371,0,0,0-1.275.574,3.2,3.2,0,0,0-.35,1.656v10.866Z" transform="translate(-81.741 -93.862)" fill="#fff"/>
      <path id="Path_1965" data-name="Path 1965" d="M275.278,109.888h-6.436v2.2a1.559,1.559,0,0,0,.43,1.178,1.609,1.609,0,0,0,1.164.414,1.279,1.279,0,0,0,1.226-.541,2.951,2.951,0,0,0,.367-1.083h3.249a4.651,4.651,0,0,1-1.306,3.441,4.6,4.6,0,0,1-1.53,1.051,5.059,5.059,0,0,1-2.007.383,4.977,4.977,0,0,1-2.6-.638,4.319,4.319,0,0,1-2.118-3.154,11.912,11.912,0,0,1-.127-1.817V106a11.923,11.923,0,0,1,.127-1.817,4.319,4.319,0,0,1,2.118-3.154,4.987,4.987,0,0,1,2.6-.637,5.174,5.174,0,0,1,2.023.382A4.548,4.548,0,0,1,274,101.828a5.221,5.221,0,0,1,1.274,3.6Zm-6.436-2.548h3.186v-1.848a1.967,1.967,0,0,0-.43-1.385,1.694,1.694,0,0,0-2.326,0,1.967,1.967,0,0,0-.43,1.385Z" transform="translate(-79.527 -93.862)" fill="#fff"/>
      <path id="Path_1966" data-name="Path 1966" d="M277.453,116.739V100.585h3.25v1.72a9.906,9.906,0,0,1,1.944-1.4,4.973,4.973,0,0,1,2.358-.509v3.441a2.643,2.643,0,0,0-.988-.191,3.852,3.852,0,0,0-1.1.176,2.847,2.847,0,0,0-1.068.59,3.046,3.046,0,0,0-.828,1.083,3.835,3.835,0,0,0-.319,1.657v9.59Z" transform="translate(-78.039 -93.862)" fill="#fff"/>
      <path id="Path_1967" data-name="Path 1967" d="M289.536,112.087a1.563,1.563,0,0,0,.43,1.178,1.608,1.608,0,0,0,1.164.414,1.281,1.281,0,0,0,1.227-.541,2.948,2.948,0,0,0,.366-1.083h3.25a4.653,4.653,0,0,1-1.308,3.441,4.58,4.58,0,0,1-1.528,1.051,5.059,5.059,0,0,1-2.007.383,4.977,4.977,0,0,1-2.6-.638,4.317,4.317,0,0,1-2.119-3.154,12.054,12.054,0,0,1-.127-1.817V106a12.065,12.065,0,0,1,.127-1.817,4.317,4.317,0,0,1,2.119-3.154,4.987,4.987,0,0,1,2.6-.637,5.174,5.174,0,0,1,2.023.382,4.538,4.538,0,0,1,1.545,1.052,5.4,5.4,0,0,1,1.275,3.728h-3.25a2.078,2.078,0,0,0-.43-1.45,1.694,1.694,0,0,0-2.326,0,1.972,1.972,0,0,0-.43,1.385Z" transform="translate(-76.93 -93.862)" fill="#fff"/>
      <path id="Path_1968" data-name="Path 1968" d="M297.722,98.01V94.76h3.249v3.25Zm0,19.435V101.292h3.249v16.153Z" transform="translate(-75.495 -94.569)" fill="#fff"/>
      <path id="Path_1969" data-name="Path 1969" d="M303.865,106a11.769,11.769,0,0,1,.128-1.817,4.3,4.3,0,0,1,2.117-3.154,5.613,5.613,0,0,1,5.194,0,4.31,4.31,0,0,1,2.118,3.154,11.912,11.912,0,0,1,.128,1.817v5.32a11.9,11.9,0,0,1-.128,1.817,4.31,4.31,0,0,1-2.118,3.154,5.6,5.6,0,0,1-5.194,0,4.3,4.3,0,0,1-2.117-3.154,11.759,11.759,0,0,1-.128-1.817Zm3.249,5.83a1.97,1.97,0,0,0,.431,1.387,1.7,1.7,0,0,0,2.325,0,1.97,1.97,0,0,0,.43-1.387v-6.34a1.967,1.967,0,0,0-.43-1.385,1.692,1.692,0,0,0-2.325,0,1.967,1.967,0,0,0-.431,1.385Z" transform="translate(-74.724 -93.862)" fill="#fff"/>
      <path id="Path_1970" data-name="Path 1970" d="M100.332,141.529V118.843h3.121l4.907,13.668h.064V118.843h3.249v22.686h-3.059l-4.97-13.637h-.063v13.637Z" transform="translate(-100.268 -91.546)" fill="#fff"/>
      <path id="Path_1971" data-name="Path 1971" d="M120.185,140.822v-1.658h-.064a5.97,5.97,0,0,1-1.29,1.371,3.059,3.059,0,0,1-1.832.478,4.1,4.1,0,0,1-1.163-.176,3.022,3.022,0,0,1-1.131-.654,3.1,3.1,0,0,1-.876-1.29,5.979,5.979,0,0,1-.335-2.182,11.526,11.526,0,0,1,.223-2.405,3.837,3.837,0,0,1,.829-1.737,3.458,3.458,0,0,1,1.56-1,7.986,7.986,0,0,1,2.518-.334h.35a1.786,1.786,0,0,1,.351.032,1.964,1.964,0,0,0,.383.032,3.852,3.852,0,0,1,.477.033v-1.688a2.475,2.475,0,0,0-.351-1.371,1.4,1.4,0,0,0-1.274-.541,1.837,1.837,0,0,0-1.163.414,1.968,1.968,0,0,0-.684,1.211h-3.155a5.2,5.2,0,0,1,1.465-3.5,4.61,4.61,0,0,1,1.53-1,5.256,5.256,0,0,1,2.007-.366,5.64,5.64,0,0,1,1.912.319,4.36,4.36,0,0,1,1.561.956,4.677,4.677,0,0,1,1.02,1.594,5.983,5.983,0,0,1,.383,2.23v11.247Zm0-6.947a5.39,5.39,0,0,0-.893-.095,3.2,3.2,0,0,0-1.8.493,2,2,0,0,0-.748,1.8,2.369,2.369,0,0,0,.446,1.5,1.484,1.484,0,0,0,1.243.574,1.6,1.6,0,0,0,1.291-.541,2.293,2.293,0,0,0,.461-1.53Z" transform="translate(-98.616 -90.839)" fill="#fff"/>
      <path id="Path_1972" data-name="Path 1972" d="M125.582,147.353V124.668h3.249v1.464a8.1,8.1,0,0,1,1.243-1.178,3.046,3.046,0,0,1,1.848-.477,2.956,2.956,0,0,1,2.836,1.53,4.321,4.321,0,0,1,.414,1.338,14.2,14.2,0,0,1,.127,2.134v6.149a24.508,24.508,0,0,1-.1,2.581,3.1,3.1,0,0,1-1.465,2.389,3.4,3.4,0,0,1-1.848.415,3.362,3.362,0,0,1-1.705-.431,3.925,3.925,0,0,1-1.29-1.227h-.064v8Zm6.468-17.427a2.954,2.954,0,0,0-.383-1.594,1.329,1.329,0,0,0-1.211-.606,1.435,1.435,0,0,0-1.178.557,2.248,2.248,0,0,0-.447,1.451v6.276a1.766,1.766,0,0,0,.463,1.258,1.522,1.522,0,0,0,1.163.494,1.333,1.333,0,0,0,1.258-.573,2.614,2.614,0,0,0,.335-1.338Z" transform="translate(-97.099 -90.839)" fill="#fff"/>
      <path id="Path_1973" data-name="Path 1973" d="M137.471,130.084a11.917,11.917,0,0,1,.127-1.817,4.319,4.319,0,0,1,2.118-3.154,5.612,5.612,0,0,1,5.194,0,4.31,4.31,0,0,1,2.118,3.154,11.912,11.912,0,0,1,.128,1.817v5.32a11.9,11.9,0,0,1-.128,1.817,4.31,4.31,0,0,1-2.118,3.154,5.6,5.6,0,0,1-5.194,0,4.319,4.319,0,0,1-2.118-3.154,11.906,11.906,0,0,1-.127-1.817Zm3.249,5.83a1.975,1.975,0,0,0,.43,1.387,1.7,1.7,0,0,0,2.326,0,1.97,1.97,0,0,0,.43-1.387v-6.34a1.967,1.967,0,0,0-.43-1.385,1.694,1.694,0,0,0-2.326,0,1.972,1.972,0,0,0-.43,1.385Z" transform="translate(-95.607 -90.839)" fill="#fff"/>
      <path id="Path_1974" data-name="Path 1974" d="M149.587,141.529V118.843h3.249v22.686Z" transform="translate(-94.086 -91.546)" fill="#fff"/>
      <path id="Path_1975" data-name="Path 1975" d="M156.239,122.093v-3.25h3.249v3.25Zm0,19.435V125.375h3.249v16.153Z" transform="translate(-93.251 -91.546)" fill="#fff"/>
    </g>
  </g>
</svg>
