<svg id="Group_159" data-name="Group 159" xmlns="http://www.w3.org/2000/svg" width="111.434" height="84.261" viewBox="0 0 111.434 84.261">
  <path id="Path_619" data-name="Path 619" d="M454.842,260.138c-.015-.348-.044-.7-.044-1.043q0-10.936,0-21.873v-1.136h1c4.33,0,8.661.051,12.99-.018a7.611,7.611,0,0,0,6.857-3.577,8.4,8.4,0,0,0,1.2-4.478c.006-11.589.076-23.18-.019-34.768-.043-5.239-3.182-8.186-8.426-8.226-5.783-.045-11.567-.053-17.349.007-3.246.033-6.071,1.084-7.428,4.3a11.27,11.27,0,0,0-.824,4.216c-.064,11.328-.035,22.656-.037,33.985a8.747,8.747,0,0,0,1.915,5.993,7.271,7.271,0,0,0,4.513,2.4c.365.06.764.006.761.588-.014,2.843-.007,5.686-.007,8.783a42.921,42.921,0,0,1-4.856-.426,14.81,14.81,0,0,1-12.224-13.663c-.092-.951-.143-1.91-.144-2.866q-.014-18.125,0-36.251A15.983,15.983,0,0,1,436.89,180.7a14.325,14.325,0,0,1,10.518-4.707c8.223-.12,16.452-.181,24.672.008a14.876,14.876,0,0,1,14.488,12.465c.133.707.243,1.418.363,2.128v40.09a7.04,7.04,0,0,0-.175.738,14.9,14.9,0,0,1-8.1,12.007,15.741,15.741,0,0,1-7.445,1.769h-6.422v14.944Z" transform="translate(-375.496 -175.877)" fill="#fff"/>
  <path id="Path_621" data-name="Path 621" d="M290.372,212.565v-8.55h27.712v-1.006c0-3.311.006-6.622,0-9.934-.011-5.038-2.934-8.194-7.96-8.291-5.751-.11-11.508-.084-17.259.022-4.223.078-7,3.056-7.39,7.635-.035.4-.051.811-.051,1.218q0,16.9.017,33.809a13.151,13.151,0,0,0,.449,3.433c.954,3.45,3.806,5.44,7.87,5.479,5.4.051,10.811.064,16.215,0,5.069-.063,8.085-3.187,8.109-8.241.006-1.214,0-2.428,0-3.7h9.667c.129,4.9.454,9.8-2.492,14.131A14.824,14.824,0,0,1,312.49,245.3c-7.235.086-14.472.055-21.708.012a15.166,15.166,0,0,1-15.14-13.38,14.309,14.309,0,0,1-.15-1.992q-.013-19.257-.005-38.515a15.174,15.174,0,0,1,15.368-15.345h21.272a15.154,15.154,0,0,1,15.427,12.645,11.994,11.994,0,0,1,.233,2.247q.026,10.5.009,21c0,.173-.018.346-.032.588Z" transform="translate(-275.485 -176.009)" fill="#fff"/>
</svg>
