<svg xmlns="http://www.w3.org/2000/svg" width="212.283" height="55.54" viewBox="0 0 212.283 55.54">
  <g id="Group_160" data-name="Group 160" transform="translate(0)">
    <path id="Path_622" data-name="Path 622" d="M-1215.333-264.441c-.8-6.773-3.669-11.73-8.409-14.52-5.267-3.1-13.27-3.279-18.957-.425a18.421,18.421,0,0,0-8.951,10.591,27.246,27.246,0,0,0,0,15.688,17.1,17.1,0,0,0,4.384,7.365,16.57,16.57,0,0,0,9.409,4.553h0a41.144,41.144,0,0,0,6.875.006,21.57,21.57,0,0,0,2.491-.544c6.709-1.943,11.287-7.1,12.859-14.477A35.639,35.639,0,0,0-1215.333-264.441Zm-11.468,8.132c-.5,7.122-2.05,10.985-4.933,12.328a5.557,5.557,0,0,1-3.9.054h0c-2.507-1.137-4.285-4.594-5.175-10.064a69.145,69.145,0,0,1-.1-14.956c.723-5.306,2.249-8.44,4.626-9.5a5.217,5.217,0,0,1,5.339,1.015C-1227.726-274.518-1226.1-266.234-1226.8-256.309Z" transform="translate(1290.6 296.575)" fill="#fff"/>
    <path id="Path_623" data-name="Path 623" d="M-789.6-364.836a13.576,13.576,0,0,0-3.464-.163,15.4,15.4,0,0,0-6.411,1.395c-.652.3-1.222.548-1.266.548s-.037-3.983.015-8.852c.073-6.86.053-8.853-.09-8.855-.5-.008-16.082,2.964-16.254,3.1-.128.1-.182.432-.153.931.051.867-.052.8,1.848,1.225a5.27,5.27,0,0,1,1.487.552,5.017,5.017,0,0,1,1.526,2.83c.288,1.106.327,1.9.46,9.373.136,7.632.11,15.479-.1,29.856l-.087,5.971,1.118.254c1.616.367,6.243,1.137,7.757,1.291h0a57.171,57.171,0,0,0,9.046-.054c7.157-1.078,12.552-5.229,15.067-11.594a28.113,28.113,0,0,0,1.531-6.213,36.673,36.673,0,0,0-.281-8.6C-779.372-358.808-783.722-363.62-789.6-364.836Zm-7.5,36.422a7.274,7.274,0,0,1-2.5.042c-.618-.049-.755-.118-.88-.446-.195-.513-.428-18.4-.332-25.547l.074-5.578,1.011-.3a8.492,8.492,0,0,1,2.393-.3,4.1,4.1,0,0,1,2.547.576c2.623,1.3,4.422,4.518,5.258,9.419a45.03,45.03,0,0,1,.068,8.93c-.687,5.33-2.429,9.633-4.746,11.716a5.655,5.655,0,0,1-2.895,1.483Z" transform="translate(921.504 380.763)" fill="#fff"/>
    <path id="Path_624" data-name="Path 624" d="M-511.389-279.815c-4.191-2.1-10.667-1.949-15.4.36a17.912,17.912,0,0,0-9.3,10.988,21.8,21.8,0,0,0-1.09,8.32,22.322,22.322,0,0,0,.385,4.351c1.769,7.9,7.184,13.266,14.756,14.631a28.658,28.658,0,0,0,7.136.013,19.586,19.586,0,0,0,6.929-2.672c2.136-1.443,4.325-3.611,4.325-4.284,0-.411-.734-1.356-1.053-1.356a5.253,5.253,0,0,0-1.317.688,11.653,11.653,0,0,1-6.863,1.9c-3.831,0-6.259-.954-8.7-3.419a9.746,9.746,0,0,1-2.084-2.76,18.967,18.967,0,0,1-1.994-8.2l-.043-1.335,11.294-.039,11.294-.039.05-.763a20.048,20.048,0,0,0-.122-2.442C-503.893-272.728-506.67-277.449-511.389-279.815Zm-5.86,13.775c-1.46.051-3.943.113-5.517.139l-2.862.046,0-.617a18.539,18.539,0,0,1,.216-1.991c.953-6.146,3.246-9.835,6.115-9.838,2.64,0,4.267,3.632,4.6,10.283l.1,1.886-2.656.092Z" transform="translate(684.208 296.475)" fill="#fff"/>
    <path id="Path_625" data-name="Path 625" d="M-271.829-258.971c-1.284-2.566-3.646-4.322-8.6-6.391-4.041-1.689-6.07-2.858-7.308-4.213a4.23,4.23,0,0,1-1.2-3.632,4.849,4.849,0,0,1,1.413-3.439,4.942,4.942,0,0,1,4.909-1.336c3.3.7,5.414,2.981,7.236,7.808.65,1.722.727,1.777,1.895,1.343l.739-.275-.026-1.984c-.014-1.091-.07-3.382-.124-5.091l-.1-3.108-.549-.233a31.548,31.548,0,0,0-12.522-1.73c-4.258.389-7.384,1.741-9.792,4.235a11.243,11.243,0,0,0-3.281,8.836,9.658,9.658,0,0,0,2.762,6.706c1.631,1.669,3,2.459,6.928,3.993,6.338,2.476,8.016,3.942,8,6.995a5.393,5.393,0,0,1-3.87,5.343,10.063,10.063,0,0,1-4.344-.005c-3.15-.83-5.561-3.559-7.617-8.619l-.527-1.3-.619.029a3.267,3.267,0,0,0-1.04.231l-.422.2.039,2.211c.022,1.216.082,3.78.135,5.7l.1,3.487.7.3a42.051,42.051,0,0,0,8.487,1.858h0c.336.036,2.19.048,4.121.027,3.35-.037,3.591-.06,5.275-.5,4.974-1.3,8.194-4.071,9.62-8.28a9.477,9.477,0,0,0,.562-3.609A10.14,10.14,0,0,0-271.829-258.971Z" transform="translate(483.11 296.507)" fill="#fff"/>
    <path id="Path_626" data-name="Path 626" d="M-1480.285-370.327h4.8c5.519,0,6.423.116,8.377,1.075,2.833,1.391,4.9,4.144,6.71,8.922.735,1.945.725,1.939,2.36,1.443l1.086-.33-.1-7.043c-.055-3.873-.144-7.318-.2-7.653l-.1-.61-21.057-.043c-11.581-.024-21.283,0-21.559.046l-.5.089.044,1.251.044,1.251,1.6.192c2.08.249,3.323.833,4.06,1.908,1.661,2.424,1.964,5.722,1.96,21.4,0,16.7-.351,20.752-1.957,22.858-.828,1.086-1.5,1.442-3.376,1.79-2.446.454-2.366.4-2.366,1.662,0,.7.064,1.085.191,1.136h0c.275.111,27.208.119,27.5.008.369-.141.347-2.131-.026-2.324a14.093,14.093,0,0,0-2.022-.4,13.635,13.635,0,0,1-2.367-.529c-1.763-.768-2.745-2.891-3.113-6.734-.265-2.756-.471-7.834-.471-11.588v-3.445l1.641.05c3.494.106,5.3.29,6.03.612,1.58.7,2.86,2.649,3.524,5.373l.354,1.45,1.246.044,1.246.045v-18.339l-1.246.044-1.246.045-.364,1.449c-.705,2.807-1.856,4.53-3.548,5.314a6.8,6.8,0,0,1-2.823.5c-1.095.066-2.626.123-3.4.127l-1.412.008,0-4.54c0-4.552.243-14.217.4-15.719Z" transform="translate(1500.465 375.521)" fill="#fff"/>
    <path id="Path_627" data-name="Path 627" d="M-979.847-281.735a8.587,8.587,0,0,0-4.166.855,13.684,13.684,0,0,0-6.334,6.323l-.548.988.07-1.755c.039-.965.1-2.768.144-4.006l.074-2.251h-.377c-.483,0-15.6,3.022-16.059,3.21-.3.123-.343.254-.343.981,0,.748.038.848.343.911.189.039.883.175,1.543.3,1.337.257,1.734.464,2.286,1.194,1.017,1.346,1.226,3.721,1.215,13.777-.009,8.222-.18,12.317-.57,13.6a3.351,3.351,0,0,1-2.8,2.649c-.477.089-1.108.214-1.4.276l-.534.114-.046,1.055c-.032.74.013,1.092.153,1.181h0c.109.07,5.281.11,11.492.09l11.294-.036.045-1.183a2.977,2.977,0,0,0-.076-1.183,22.8,22.8,0,0,1-3.99-.547c-1.273-.532-1.89-1.675-2.156-4-.312-2.724-.5-9.5-.411-15.05.088-5.607.089-5.63.439-6.005a7.347,7.347,0,0,1,4.746-1.565,10.662,10.662,0,0,1,4.661,1.166,6.145,6.145,0,0,0,1.608.615c.2-.078,3.91-9.869,3.91-10.331C-975.641-281.048-977.744-281.735-979.847-281.735Z" transform="translate(1082.638 296.848)" fill="#fff"/>
  </g>
</svg>
