<svg id="Group_166" data-name="Group 166" xmlns="http://www.w3.org/2000/svg" width="77.684" height="84.261" viewBox="0 0 77.684 84.261">
  <path id="Path_678" data-name="Path 678" d="M240.608,72.119l-2.393-3.3.1-.229a4.147,4.147,0,0,0,.955-.018.969.969,0,0,0,.626-.431.87.87,0,0,0-.134-.756c-.861-.956-.884-1.285-.069-2.173-.847-1.294-1.655-2.6-2.543-3.851-.412-.581-1.058-.484-1.634-.2a34.518,34.518,0,0,0-3.2,1.77c.781,0,1.563.025,2.342-.009a1.2,1.2,0,0,1,1.127.526c.672.9,1.4,1.75,2.09,2.6a20.138,20.138,0,0,0-1.4,6.588,2.346,2.346,0,0,1-1.4,2.287c-1.519.731-3.014,1.513-4.519,2.273l-.276-.24c.334-1.046.655-2.1,1.026-3.13.033-.093.385-.11.585-.1a7.019,7.019,0,0,0,.909.131c.48-.037.673-.288.483-.807-.4-1.1-.356-1.3.673-1.9a1.25,1.25,0,0,0,.7-1.337c-.061-.807-.061-1.62-.076-2.43a1.483,1.483,0,0,0-1.916-1.51c-.938.227-1.875.48-2.785.8a12.054,12.054,0,0,1-4.679.819,1.851,1.851,0,0,0-1.715.715c-2.139,2.765-5.183,3.309-8.406,3.388-.837.02-1.674,0-2.511,0a2.751,2.751,0,0,0-2.82,1.915c-.478,1.485-.784,3.026-1.162,4.543-.371,1.488-.775,2.978-2.228,3.8-.715.406-1.423.757-1.706,1.6a5.863,5.863,0,0,0-.432,1.294,10.927,10.927,0,0,0,1.236,5.9,1.69,1.69,0,0,1,.056,1.151c-.345,1.111-.777,2.195-1.253,3.5l-2.97-3.715c.5-.182.864-.3,1.216-.445.408-.165.607-.489.131-.712-.97-.454-.855-1.208-.674-1.994a8.041,8.041,0,0,0-.554-4.676c-.021-.058-.108-.093-.254-.211-.028.291-.066.5-.066.717q0,8.671,0,17.341c0,1.082.006,1.082,1.048,1.082q12.164,0,24.328.007c.18,0,.361-.024.644-.043V90.182c.327-.022.554-.051.781-.051,3.034,0,6.069.008,9.1-.019.566,0,.786.136.785.737q-.026,10.005-.017,20.011a4.894,4.894,0,0,1-.072.576h-72.82c-.02-.218-.059-.441-.059-.665,0-2.433.021-4.866-.017-7.3-.01-.645.212-.789.808-.785,3.767.021,7.534.01,11.3.01,1.092,0,1.095,0,1.095-1.114q0-25.034-.007-50.068,0-6.945,0-13.89V36.589H165.011v-2.2c0-2.119.018-4.238-.013-6.357-.009-.625.145-.861.823-.858,8.083.034,16.165.031,24.248.051,4.263.011,8.526.048,12.789.074,3.374.02,6.747.054,10.121.048.59,0,.766.178.761.759-.026,2.589-.04,5.18,0,7.768.012.72-.345.738-.863.737-3.61-.01-7.22.012-10.83-.03-.74-.008-.988.168-.982.94.034,4.159.013,8.318.019,12.477,0,.443-.155.965.534,1.122.577.132,1.116.437,1.524-.347.176-.338.608-.543.932-.815l-.874-1.253a3.687,3.687,0,0,1,.562-.172,1.1,1.1,0,0,0,1.065-1.135c.016-.185.2-.508.31-.507,1.053.006,1.626-.46,1.568-1.355.813-.181,1.494-.361,2.186-.464a.652.652,0,0,1,.5.36c.151.406.307.682.816.664,2.192-.077,4.4.01,6.573-.233a4.392,4.392,0,0,1,3.279,1.276c.764.566.418,1.415-.679,1.794-.253,1.544-.768,1.841-2.382,1.438a1.168,1.168,0,0,0-.679.2,9.664,9.664,0,0,1-1.143.638c-.864.294-.875.263-1.378,1.175,1.218-.084,2.435-.221,3.655-.241a10.156,10.156,0,0,1,6.52,1.815,22.849,22.849,0,0,0,2.487,1.317A6.8,6.8,0,0,1,229.44,58.7a1.022,1.022,0,0,0,.7.535,12.178,12.178,0,0,0,6.163-.722,1.281,1.281,0,0,1,.943.064,19.871,19.871,0,0,1,2.323,1.3,1.724,1.724,0,0,1,.55.869c.334.988.591,2,.93,2.986a3.022,3.022,0,0,0,.611.986,2.569,2.569,0,0,1,.72,2.514c-.46,1.622-.975,3.229-1.466,4.842ZM222.985,68.1c-.43-.116-.84-.108-1.059-.309-.581-.533-1-.283-1.569.046-1.9,1.1-3.8,2.252-6.169,1.62a1.141,1.141,0,0,0-.467.025c-.848.148-1.693.315-2.542.453a27.929,27.929,0,0,1-13.552-.846c-1.242-.416-1.246-.411-1.946.739-.041.067-.074.138-.112.207a2.493,2.493,0,0,0,.654,3.4,36.19,36.19,0,0,1,2.916,2.724,4.208,4.208,0,0,1,.191,5.861c-1.839,2.032-1.837,4.494-1.071,7a1.615,1.615,0,0,0,.087-.635c.007-1.044-.054-2.093.04-3.129a2.643,2.643,0,0,1,1.664-2.359,5.31,5.31,0,0,0,3.435-4.226c.085-.567.133-1.142.165-1.715.138-2.451,1.124-4.3,3.54-5.226a11.878,11.878,0,0,1,4.327-.5,30.585,30.585,0,0,0,7.261-.439A6.88,6.88,0,0,0,222.985,68.1Zm-12.3,3.547h-1.37a5.2,5.2,0,0,0-5.124,4.206c-.53,2.6-.125,5.288-.848,7.9a8,8,0,0,0,.7,5.42,2.18,2.18,0,0,1,.17,2.1c-.427.724-.03,1.064.568,1.446.11-.7.724-1.164.358-1.965a11.815,11.815,0,0,1-1.164-3.383c-.287-2.406-.707-4.308,2.263-5.877a2.153,2.153,0,0,0,.369-.285c1.2-1.028,1.468-2.492,1.758-3.918C208.772,75.306,208.965,73.255,210.684,71.642Zm12.924-7.253c1-1.232,2.564-1.128,3.945-1.473a1.565,1.565,0,0,0-.035-.284c-1.243-3.5-3.869-5.524-7.251-6.7-.839-.292-2.022.775-1.732,1.635a4.733,4.733,0,0,0,1.373,2.273,12.542,12.542,0,0,1,3.225,3.442A7.357,7.357,0,0,1,223.608,64.389Zm-.2-10.172.129-.2a23.306,23.306,0,0,0-2.525-1.077c-2.631-.787-5.271-.388-7.924-.012a9.977,9.977,0,0,1-3.24-.1,2,2,0,0,1-1.733-2.04c-.011-.664-.372-.621-.864-.442a4.658,4.658,0,0,0,2.284,3.819,10.864,10.864,0,0,0,5.535,1.08c1.429.014,2.858.043,4.287.061a2.387,2.387,0,0,0,.695-.037C221.18,54.927,222.3,54.568,223.413,54.217Zm-5.156-6.62-.01.241c-.861,0-1.723.014-2.583,0-1.042-.021-2.083-.075-3.125-.094a.507.507,0,0,0-.4.178c-.534,1.114-1.456.881-2.371.725a.854.854,0,0,0-.571.047,2.211,2.211,0,0,0,.346,3.584,8.145,8.145,0,0,0,2.439.417,1.671,1.671,0,0,0,1.9-1.365,3.168,3.168,0,0,1,2.678-2.51,19.759,19.759,0,0,1,2.691-.3c.689-.063,1.062-.528.668-.932a7.3,7.3,0,0,0-1.756-1.275c-.288-.156-.73-.026-1.1-.026l-.085.166ZM190.651,84.158l.076.2a3.68,3.68,0,0,0,1.051.059,2.15,2.15,0,0,0,1.714-1.557,9.593,9.593,0,0,0,.318-2.767c-.085-1.452-.386-2.89-.556-4.338A2.913,2.913,0,0,1,194.2,73a1.832,1.832,0,0,0,.3-.528c-.227-.047-.492-.2-.673-.125A3.045,3.045,0,0,0,191.843,74a10.264,10.264,0,0,0-.709,3.234,13.911,13.911,0,0,0,.631,3.508A2.964,2.964,0,0,1,190.651,84.158Zm11.934-22.973a1.4,1.4,0,0,0-1.3-1.076,51.746,51.746,0,0,1-5.772-1.029A43.342,43.342,0,0,1,183.1,53.2a5.553,5.553,0,0,0-.6-.3l-.138.17a2.917,2.917,0,0,0,.43.7,21.729,21.729,0,0,0,2.49,2.13,29.764,29.764,0,0,0,11.251,4.547C198.475,60.789,200.452,60.93,202.584,61.185Zm24.658-.281a15.691,15.691,0,0,1,1.513-1.3c.4-.269.485-.544.245-.893a14.424,14.424,0,0,0-1.791-2.426,5.283,5.283,0,0,0-6.648-.707A12.835,12.835,0,0,1,227.242,60.9Zm10,4.97c-.6-.738-1.116-1.45-1.718-2.081a1.636,1.636,0,0,0-1.034-.5c-2.116-.025-4.235-.024-6.349.06a14.794,14.794,0,0,0-2.926.464,2.523,2.523,0,0,0-1.227.767c-.63.732-.444,1.337.505,1.393a10.819,10.819,0,0,0,3.15-.313c1.72-.417,3.386-1.054,5.1-1.481a2.033,2.033,0,0,1,2.476,1.009C235.659,66,236.327,66.112,237.245,65.874ZM201.39,59.036c-.26-.041-.489-.085-.718-.112a25.772,25.772,0,0,1-9.228-2.819c-2.875-1.539-5.673-3.224-8.507-4.84a6.5,6.5,0,0,0-.61-.268,1.926,1.926,0,0,0,1.135,2c2.262,1.245,4.48,2.582,6.8,3.716a29.887,29.887,0,0,0,10.554,3C201.349,59.757,201.472,59.581,201.39,59.036Zm7.15-3.1c.064.087.034.008-.023-.026a6.033,6.033,0,0,1-2.973-5.581,18.806,18.806,0,0,0-.225-1.978l3.829-2.367-.143-.4-1.944.252c-.054,1.14-.949,1.325-1.884,1.474.069.926-.422,1.419-1.358,1.66,1.4,1.328-.452,1.627-.668,2.5a1.56,1.56,0,0,1,.815,1.984c-.169.574-.007.938.53,1.082,1.189.319.964,1.439,1.2,2.224.191.629.69,1.216,1.331,1.081-.092-.287-.333-.777-.253-.837A18.047,18.047,0,0,1,208.54,55.938Zm-11.5,29.09c.24-.341.467-.634.662-.946.574-.922,1.108-1.87,1.711-2.772a2.914,2.914,0,0,0,.594-2.571,7.872,7.872,0,0,0-1.341-2.507,35.791,35.791,0,0,0-2.949-2.815,5.446,5.446,0,0,0,1.439,5.075c.223.219.458.428.66.666a2.165,2.165,0,0,1-.051,3.307c-.188.18-.4.339-.6.506C196.257,83.728,196.241,83.869,197.038,85.028Zm7.114-21.475c-.108-.756-.548-.851-1.169-.872-1.408-.046-2.821-.126-4.218-.308a37.361,37.361,0,0,1-12.983-4.392,9.323,9.323,0,0,0-.9-.365C185.743,60.079,198.434,64.4,204.152,63.553ZM240.6,68.075a.848.848,0,0,0,.737-1.187,4.529,4.529,0,0,0-.422-1,38.846,38.846,0,0,1-2.014-3.963c-.5-1.337-1.6-1.678-2.7-2.12-.17-.068-.436.079-.65.15-1.707.559-3.4,1.182-5.124,1.661a18.161,18.161,0,0,1-2.844.316c.265.4.456.962.666.969a9.306,9.306,0,0,0,3.092-.186,24.472,24.472,0,0,0,3.805-1.815,1.758,1.758,0,0,1,2.534.617c.734,1.108,1.514,2.188,2.316,3.248.292.386.286.586-.11.879-.52.385-.521.827-.043,1.315A7.359,7.359,0,0,1,240.6,68.075Zm-31.936-2.191.025-.216a6.5,6.5,0,0,0-3.194-.687,37.666,37.666,0,0,1-12.7-1.5c-1.085-.292-2.163-.606-3.244-.91a3.65,3.65,0,0,0,1.472,1.162,42.462,42.462,0,0,0,4.51,1.213,49.8,49.8,0,0,0,11.609,1.018C207.651,65.952,208.158,65.913,208.666,65.885Zm25.039,8.089a1.138,1.138,0,0,0,1.478-1.185,45.47,45.47,0,0,1,.313-4.841,2.628,2.628,0,0,0-.482-2.5,2.232,2.232,0,0,0-2.313-.895,22.488,22.488,0,0,0-2.719.729c-1.816.62-3.592,1.392-5.618,1.285a2.667,2.667,0,0,0,1.5.559,30.067,30.067,0,0,0,3.442-.668c1.291-.3,2.556-.741,3.861-.939a1.625,1.625,0,0,1,1.774,1.686c.013.862-.041,1.731.054,2.584a1.442,1.442,0,0,1-.869,1.69.956.956,0,0,0-.5,1.479A2.611,2.611,0,0,1,233.706,73.974ZM191.175,45.741c.046.9,0,1.582.7,1.932q5.031,2.521,10.086,4.992a11.387,11.387,0,0,0,1.627.512,1.121,1.121,0,0,0-.893-1.447,9.407,9.407,0,0,1-1.877-.506c-2.159-1.148-4.279-2.368-6.405-3.576C193.379,47.063,192.367,46.445,191.175,45.741ZM184.04,55.66a3,3,0,0,0,1.53,1.775,37.4,37.4,0,0,0,11.786,4.331c1.918.329,3.87.455,5.9.683l-.173-1.025A33.1,33.1,0,0,1,184.04,55.66Zm19.516-2.045c-4.282-1.352-8.137-3.512-12.095-5.554a1.215,1.215,0,0,0,.192.805,6.615,6.615,0,0,0,1.6,1.452c2.232,1.122,4.5,2.182,6.794,3.164a27.684,27.684,0,0,0,3.3.964Zm2.068,11.195.1-.474a4.672,4.672,0,0,0-1.056-.321c-1.951-.119-3.922-.068-5.854-.319a40.875,40.875,0,0,1-10.27-2.993c-.2-.082-.407-.141-.829-.286a2.945,2.945,0,0,0,2.012,1.775c2.956.75,5.906,1.569,8.906,2.085A69.812,69.812,0,0,0,205.624,64.809ZM193.016,50.753l-.209.079c.1.264.122.625.311.776a10.958,10.958,0,0,0,1.962,1.347,22.488,22.488,0,0,0,8.751,2.718,4.878,4.878,0,0,0,1.131-.212c-.369-.23-.726-.634-1.108-.66a17.938,17.938,0,0,1-5.822-1.711C196.337,52.366,194.687,51.536,193.016,50.753ZM205.978,49.7a6.277,6.277,0,0,0,1.278,4.648c1.131,1.324,2.673,1.744,4.217,2.215a2.832,2.832,0,0,0,2.724-.909,27.919,27.919,0,0,1-2.768-.382c-2.729-.646-4.118-1.939-4.508-4.623C206.836,50.058,206.548,49.867,205.978,49.7Zm-12.53,2.926c.008.841.34,1.311,1.362,1.784a29.466,29.466,0,0,0,9.657,2.775c.442.041.871.006.82-.516-.021-.215-.47-.547-.732-.554a21.84,21.84,0,0,1-8.767-2.4C195.025,53.358,194.259,53,193.448,52.627ZM211.83,67.873c-.2-.837-.728-.847-1.338-.7a2.242,2.242,0,0,1-.389.029,61.36,61.36,0,0,1-13.435-.557c-.352-.055-.711-.067-1.067-.1l-.017.3A47.149,47.149,0,0,0,211.83,67.873ZM239.159,60.4l.01-.275c-1.258-.9-2.514-1.8-4.143-.795a.982.982,0,0,1-.453.105c-1.5.072-3.009.163-4.515.193a2.47,2.47,0,0,0-2.3,1.794,6.468,6.468,0,0,0,1.484-.017,27.667,27.667,0,0,0,5.155-1.448,3.53,3.53,0,0,1,3.748.321C238.41,60.442,238.819,60.367,239.159,60.4ZM219.09,55.607c-2.24-.323-4.266-.191-5.921,1.306l5.267,1.821C217.968,57.012,217.968,57.012,219.09,55.607Zm-24.435,9.64-.128.346a5.653,5.653,0,0,0,1.284.552,61.834,61.834,0,0,0,14.066.7,4.548,4.548,0,0,0,.581-.114l.05-.27a2.38,2.38,0,0,0-.762-.224,53.991,53.991,0,0,1-13.045-.686C196.022,65.432,195.337,65.348,194.655,65.246Zm11.117-7.186.057-.249c-1.99-.352-4.018-.565-5.96-1.1-1.974-.54-3.863-1.393-5.783-2.106a1.236,1.236,0,0,0,.941,1.533,27.35,27.35,0,0,0,8.819,1.788C204.489,57.938,205.131,58.015,205.772,58.06ZM196,67.445q-.018.191-.036.383c5.638,1.126,11.3,1.694,17.06.666a1.839,1.839,0,0,0-1.05-.281,46.69,46.69,0,0,1-13.726-.427C197.5,67.656,196.746,67.557,196,67.445Zm1.838,1.234a28.015,28.015,0,0,0,15.617.371A53.061,53.061,0,0,1,197.834,68.679Zm39.353-2.306c-.4.131-1.019-.289-1.1.5-.188,1.889-.408,3.778-.491,5.672-.052,1.18-.572,1.866-1.756,1.9-.2.006-.4.025-.64.04v1.043c.539-.3.953-.567,1.4-.768a2.113,2.113,0,0,0,1.488-2.36,3.281,3.281,0,0,1,.114-1.007C236.517,69.758,236.843,68.124,237.188,66.372ZM203.569,91.643c.542-.969.52-1.078.3-1.865-.373-1.345-.745-2.7-1.019-4.063a10.556,10.556,0,0,1-.022-2.008l-1.01.207a8.1,8.1,0,0,1,.427,5.171c-.065.251.317.622.5.933.171.293.362.575.523.874C203.368,91.08,203.429,91.291,203.569,91.643Zm13.714-44.035.107-.327a3.452,3.452,0,0,0-1.1-.475,28.962,28.962,0,0,0-7.84.641,2.682,2.682,0,0,0-.667.384l.148.369c.575-.134,1.152-.259,1.723-.406a4.077,4.077,0,0,1,.889-.278c1.894-.01,3.787.017,5.681.038C216.576,47.557,216.929,47.589,217.283,47.608Zm24.138,22.038c.231-.943.4-1.695.6-2.439a2.5,2.5,0,0,0-.532-2.119,11.327,11.327,0,0,1-1.1-2.04c-.313-.792-.484-1.639-.736-2.53l-.967.407c.883,1.635,1.707,3.195,2.561,4.737.844,1.525.7,2.157-.793,3.057ZM203.644,61.74l-.1.2a3.3,3.3,0,0,0,.991.348,21.917,21.917,0,0,0,3.195-.113c1.261-.171,2.5-.5,3.749-.766l-.051-.3Zm.8,1.2c.557.894,6.968.068,7.947-1.194Zm1.3.91c.789.774,6.906-.194,7.994-1.38a6.735,6.735,0,0,0-1.312.014c-.833.19-1.639.509-2.475.674C208.586,63.43,207.2,63.618,205.746,63.853Zm10.577-5.581-7.947.908c.855.3,1.564.888,2.558.633,1.161-.3,2.344-.515,3.5-.821A19.643,19.643,0,0,0,216.323,58.272Zm-13.4,2.2-.092.29c.216.157.432.449.649.45a25.885,25.885,0,0,0,6.7-.506l-.01-.233Zm9.91-3c-2.552-1.087-4.865-1.19-5.867-.162A15.4,15.4,0,0,0,212.835,57.479Zm-11,1.589c.078.884.495,1.037,1.045,1.035,1.176-.005,2.352,0,3.528-.006h2.468l.016-.338C206.637,59.007,204.217,59.874,201.838,59.068Zm12.907,4.17a4.671,4.671,0,0,0-1.041.012c-1.037.243-2.055.567-3.092.808-1,.231-2.013.4-3.084.6C208.473,65.356,212.838,64.559,214.745,63.238Zm-.343-12.5.2.3a5.041,5.041,0,0,0,1.428-.715.927.927,0,0,1,1.292-.236.738.738,0,0,0,.52.12,3.19,3.19,0,0,0,.987-.528.713.713,0,0,0-.005-.619,1.722,1.722,0,0,0-1.014-.169,18.523,18.523,0,0,0-2.609,1C214.873,50.036,214.664,50.441,214.4,50.733Zm-6.959,8.479c.145-.768-.1-.863-.564-.878-1.587-.051-3.173-.159-4.76-.221a2.823,2.823,0,0,0-.734.171c.206.166.4.456.62.478C203.811,58.941,205.623,59.069,207.442,59.213Zm11.566,6.877c-.333-.409-.529-.667-1.117-.383-1.421.686-2.907,1.238-4.366,1.846-.187.078-.37.164-.554.247l.1.273C215.252,68.1,217.072,67,219.008,66.09Zm-7.226.969c1,.621,5.051-.753,6.065-2.035a1.711,1.711,0,0,0-.98-.028c-1.275.515-2.527,1.089-3.793,1.626C212.7,66.779,212.3,66.883,211.782,67.059ZM215.947,64l-.089-.324L209.311,65.5l.064.246A14.569,14.569,0,0,0,215.947,64Zm-5.28-3.633c1.058.666,5.6-.519,6.576-1.828Zm.155,5.931c.749.649,4.993-.7,5.963-1.893-.124-.054-.26-.172-.344-.142C214.578,64.923,212.72,65.6,210.823,66.294Zm-16.34-9.912c.29.989,5.053,2.419,6.6,1.972Zm23.668,2.983-.024-.249a4.041,4.041,0,0,0-.848.133c-1.133.432-2.242.932-3.385,1.334a16.611,16.611,0,0,1-2.006.443C212.985,61.754,216.609,60.745,218.151,59.365Zm2.457,7.794-.055-.243a4.667,4.667,0,0,0-.859.207c-.947.424-1.851.96-2.826,1.3a16.674,16.674,0,0,1-2.5.479C215.351,69.733,218.819,68.752,220.609,67.159Zm-5.947-9.143q0-.106,0-.211c-.548.04-1.1.1-1.644.116-1.534.032-3.07.033-4.6.075-.183.005-.36.19-.54.292.123.1.246.273.37.275A20.825,20.825,0,0,0,214.662,58.016Zm-1.709,4.107a5.153,5.153,0,0,0,1.476-.021,17.978,17.978,0,0,0,4.782-2.236c-.251-.113-.39-.233-.466-.2C216.868,60.449,215,61.25,212.952,62.123Zm-8.839,32.442a2.254,2.254,0,0,0-.994-2.933c-.26-.167-.718-.025-1.085-.025l-.042.269Zm-.432-14.047-.175-.023c-.62.637-1.25,1.264-1.85,1.919a.607.607,0,0,0-.1.522c.069.182.293.456.412.438.325-.049.816-.151.91-.373A24.727,24.727,0,0,0,203.68,80.518ZM230.8,76.473c2.144-.648,2.107-.626,1.9-2.136l-1.126-.245ZM221.747,67.1c.744.772,1.277.773,2.422.024l-1.118-1.656Zm-2.006-6.889-5.484,2.5C215.357,63.106,219.027,61.448,219.741,60.216Zm-4.25,3.086c1.113.326,4.064-1.18,5.069-2.674ZM238.829,69l1.744,2.434C241.454,69.7,240.952,68.98,238.829,69Zm-21.966-5.127c.756.375,3.5-1.173,4.405-2.641-.294.038-.527,0-.672.1C219.348,62.162,218.115,63.016,216.863,63.875Zm4.893-2.157-4.065,2.82c1.787-.021,2.817-1.125,3.889-2.13C221.688,62.306,221.671,62.071,221.755,61.718Zm-2.436,3.876c-.086-.066-.034.006.03.018a3.994,3.994,0,0,0,3.494-1.8c.051-.125-.117-.339-.141-.4Zm.532.557-4.724,2.13C216.452,68.559,219.8,67.062,219.851,66.15Zm.418.083.153.268c1.276.343,2.289-.481,2.519-2.109-.454.37-.852.736-1.294,1.04S220.73,65.969,220.269,66.234Zm-22.648,22.2a2.195,2.195,0,0,0,.507,3.152C198.478,90.47,197.941,89.527,197.622,88.435Zm21.224-23.444c1.245.068,3.448-1.483,3.295-2.367ZM198.473,94.573c.376-.813.3-1.075-.637-1.622-.213-.124-.56-.018-.845-.018l-.073.283Zm.37-1.252c.34-.841.47-1.527-.12-2.15l-.729,1.343Zm13.733-46.9-.026-.21-4.1.5.035.275Zm-4.1,2.777h-2.089l-.053.288c.543.112,1.083.25,1.632.314C208.071,49.815,208.208,49.53,208.477,49.2Zm-2.711-.667q0,.109.01.217h2.866l-.007-.217Zm4.168-.483.073.3c.538-.06,1.173.289,1.583-.3l-.06-.277Z" transform="translate(-164.787 -27.175)" fill="#fff"/>
  <path id="Path_679" data-name="Path 679" d="M178.191,160.844a1.235,1.235,0,0,0-2.069-.019,2.577,2.577,0,0,0-.134,2.082c.215.618,1.493.4,2.214-.36V165c-.841-1.533-2.343-1.638-3.6-2.159-.93-.385-1.914-.641-2.873-.957-.073-.024-.139-.066-.391-.189.911-.381,1.613-.681,2.32-.969q1.739-.709,3.484-1.406c.519-.207.967-.477.835-1.135s-.656-.825-1.245-.829c-1.072-.006-2.146.036-3.217-.007-.727-.029-1.294.122-1.536.934a1.227,1.227,0,0,1,.308-1.822q1.788-1.273,3.573-2.55a4.8,4.8,0,0,0,.432-.395l-.048-.221c-1.179.052-2.363.059-3.533.189-.306.034-.57.453-.908.741v-2.11c.361.807,1.009.893,1.749.881,1.333-.022,2.668,0,4,.009a1.448,1.448,0,0,1,.813.227l-5.154,3.72c1.447,0,2.687.054,3.918-.033.359-.025.688-.453,1.063-.719Zm-2.662.141-2.216.91.043.184,2.173.76Z" transform="translate(-170.308 -132.505)" fill="#fff"/>
  <path id="Path_680" data-name="Path 680" d="M179.793,448.674c.3-1.353,1.421-2.465-.09-3.606.7.011,1.008.275,1.229.98a3.672,3.672,0,0,1-.337,2.727q-.164.354-.324.71a1.571,1.571,0,0,0,.423,2.05c-.7.022-.871-.536-1.194-1.1-.946,1.46-2.182,2.3-3.966,1.933a3.344,3.344,0,0,1-2.3-1.719A3.238,3.238,0,0,1,174.7,446.2C176.71,445.211,178.668,446.091,179.793,448.674Zm-3.6-1.807a16.7,16.7,0,0,0-1.789.429,1.906,1.906,0,0,0-1.253,1.889,2.016,2.016,0,0,0,1.327,1.846,5.278,5.278,0,0,0,3.229.137,2.129,2.129,0,0,0,1.706-1.905,1.954,1.954,0,0,0-1.49-2.043A14.006,14.006,0,0,0,176.19,446.868Z" transform="translate(-171.579 -379.47)" fill="#fff"/>
  <path id="Path_681" data-name="Path 681" d="M179.97,263.225c.124-.931-.395-.909-.931-.905-1.279.01-2.56-.04-3.837.017a5.841,5.841,0,0,0-1.407.438c.031-1.118-.271-2.43.274-3.694a3.232,3.232,0,0,1,3.827-1.832,2.814,2.814,0,0,1,2.394,2.937c.036.95.007,1.9.007,2.855Zm-5.83-1.868c1.509,0,2.993-.03,4.474.009,1.259.033,1.742-.437,1.194-1.938a2.053,2.053,0,0,0-1.255-1.039,6.192,6.192,0,0,0-2.235-.118A2.363,2.363,0,0,0,174.139,261.357Z" transform="translate(-172.334 -221.07)" fill="#fff"/>
  <path id="Path_682" data-name="Path 682" d="M172.946,364.053a3.417,3.417,0,1,1,3.5,3.269A3.416,3.416,0,0,1,172.946,364.053Zm3.508,2.123c.324-.03.743-.042,1.153-.111a2.115,2.115,0,0,0,1.865-1.914,2.031,2.031,0,0,0-1.649-2.158,5.434,5.434,0,0,0-3.3.125,1.99,1.99,0,0,0-.753,3.212A3.538,3.538,0,0,0,176.454,366.176Z" transform="translate(-171.665 -308.3)" fill="#fff"/>
  <path id="Path_683" data-name="Path 683" d="M176.326,112.749a3.291,3.291,0,1,1,3.374-3.3A3.34,3.34,0,0,1,176.326,112.749Zm.035-5.625a18.544,18.544,0,0,0-2.053.547,1.791,1.791,0,0,0-1.153,1.8,1.863,1.863,0,0,0,1.174,1.794,4.7,4.7,0,0,0,3.877-.005,1.856,1.856,0,0,0,1.184-1.7,1.7,1.7,0,0,0-.941-1.759A16.829,16.829,0,0,0,176.361,107.124Z" transform="translate(-171.583 -93.769)" fill="#fff"/>
  <path id="Path_684" data-name="Path 684" d="M174.269,408.083V405.9c.514,1.038,1.426.948,2.311.935.758-.011,1.516-.015,2.275-.016a1.914,1.914,0,0,1,2.008,1.863c.111,1.451-.325,2.939-2.537,2.777a19.393,19.393,0,0,0-2.743.008,5.642,5.642,0,0,0-1.3.42v-2.162c.391,1.038,1.158.793,1.835.8.915.009,1.831.019,2.745,0a1.5,1.5,0,0,0,1.66-1.575,1.571,1.571,0,0,0-1.68-1.731c-.889-.01-1.778.016-2.667,0-.768-.016-1.486.024-1.744,1.013Z" transform="translate(-172.781 -346.452)" fill="#fff"/>
  <path id="Path_685" data-name="Path 685" d="M173.711,325.571V321.05l1.948-.589c-.6.757-1.588,1.148-1.6,2.341,1.785,0,3.533.028,5.278-.028.276-.009.541-.395.845-.634v2.454c-.158-.953-.862-.795-1.511-.789-1.506.014-3.013,0-4.515,0-.016.727-.016.727,1.6,2.326Z" transform="translate(-172.31 -274.423)" fill="#fff"/>
  <path id="Path_686" data-name="Path 686" d="M174.321,237.8a4.277,4.277,0,0,0,1.19.445c1.331.056,2.667.058,4,.01a4.25,4.25,0,0,0,1.181-.429v2.036c-.247-.773-.895-.63-1.464-.634q-1.8-.013-3.609,0c-.5.005-1.108-.16-1.1.843l-.193-.217Z" transform="translate(-172.824 -204.737)" fill="#fff"/>
  <path id="Path_687" data-name="Path 687" d="M180.838,303a5.464,5.464,0,0,0-1.362-.428c-1.3-.057-2.606-.05-3.907,0a3.585,3.585,0,0,0-1.091.46v-1.893a4.888,4.888,0,0,0,1.273.417c1.3.055,2.6.012,3.908.024.5,0,.981.03,1.18-.634Z" transform="translate(-172.957 -257.978)" fill="#fff"/>
</svg>
