<svg xmlns="http://www.w3.org/2000/svg" width="268.25" height="73.884" viewBox="0 0 268.25 73.884">
  <g id="Group_1046" data-name="Group 1046" transform="translate(-67.75 -41.655)">
    <g id="Group_698" data-name="Group 698" transform="translate(68 41.905)">
      <g id="Group_644" data-name="Group 644" transform="translate(20.287 20.356)">
        <g id="Group_643" data-name="Group 643">
          <g id="Group_642" data-name="Group 642">
            <path id="Path_1444" data-name="Path 1444" d="M191.88,158.339l5.426,9.217-4.3,12.186-11.247,6.76L171.3,182.4l-6.657-12.29,4.916-12.186,11.675-4.2Z" transform="translate(-164.472 -153.568)" fill="#282828" stroke="#282828" stroke-linecap="round" stroke-linejoin="round" stroke-width="0.5"/>
            <path id="Path_1445" data-name="Path 1445" d="M180.835,185.756l-.069-.027-10.514-4.116-.026-.048-6.691-12.353L168.5,156.9l11.8-4.242,10.751,4.652,5.487,9.319-.024.066-4.319,12.237-.046.028Zm-10.37-4.384,10.342,4.049,11.137-6.693,4.259-12.068-5.365-9.114-10.551-4.565-11.555,4.155-4.864,12.057Z" transform="translate(-163.535 -152.656)" fill="#282828" stroke="#282828" stroke-linecap="round" stroke-linejoin="round" stroke-width="0.5"/>
          </g>
        </g>
      </g>
      <g id="Group_697" data-name="Group 697" transform="translate(0 0)">
        <g id="Group_646" data-name="Group 646" transform="translate(0 0.076)">
          <g id="Group_645" data-name="Group 645">
            <path id="Path_1446" data-name="Path 1446" d="M66.638,92.289a36.463,36.463,0,0,1-36.393-33.9c-.061-.859-.092-1.731-.092-2.589a36.24,36.24,0,0,1,2.905-14.291A36.778,36.778,0,0,1,42.3,28.621a36.355,36.355,0,0,1,24.337-9.3c.138,0,.278,0,.416,0A36.494,36.494,0,0,1,81.192,89.269a36.222,36.222,0,0,1-13.61,3.009C67.267,92.285,66.95,92.289,66.638,92.289Zm0-72.369A35.75,35.75,0,0,0,42.7,29.07a36.169,36.169,0,0,0-9.091,12.679A35.641,35.641,0,0,0,30.756,55.8c0,.844.03,1.7.091,2.547a35.423,35.423,0,0,0,4.336,14.73,35.837,35.837,0,0,0,31.455,18.6c.308,0,.62,0,.93-.011a35.891,35.891,0,0,0,14.38-68.333,35.544,35.544,0,0,0-14.9-3.418C66.9,19.92,66.77,19.92,66.638,19.92Z" transform="translate(-30.001 -19.165)" fill="#282828" stroke="#282828" stroke-linecap="round" stroke-linejoin="round" stroke-width="0.5"/>
            <path id="Path_1447" data-name="Path 1447" d="M65.789,91.591A36.615,36.615,0,0,1,29.245,57.554c-.061-.863-.093-1.738-.093-2.6A36.39,36.39,0,0,1,32.07,40.6a36.932,36.932,0,0,1,9.282-12.945,36.506,36.506,0,0,1,24.437-9.343c.139,0,.281,0,.42,0A36.644,36.644,0,0,1,80.4,88.559,36.375,36.375,0,0,1,66.737,91.58C66.422,91.587,66.1,91.591,65.789,91.591Zm0-72.973a36.2,36.2,0,0,0-24.236,9.266,36.626,36.626,0,0,0-9.205,12.839,36.089,36.089,0,0,0-2.893,14.232c0,.855.031,1.722.092,2.579a35.874,35.874,0,0,0,4.39,14.917A36.29,36.29,0,0,0,65.789,91.289c.312,0,.629,0,.941-.011a36.344,36.344,0,0,0,14.562-69.2A35.982,35.982,0,0,0,66.2,18.622C66.064,18.618,65.925,18.618,65.789,18.618Zm0,72.369A36.011,36.011,0,0,1,29.847,57.512c-.06-.849-.091-1.71-.091-2.557a35.792,35.792,0,0,1,2.869-14.113,36.323,36.323,0,0,1,9.129-12.732A35.9,35.9,0,0,1,65.789,18.92v.151l.008-.151c.132,0,.265,0,.4,0A36.041,36.041,0,0,1,80.162,88.005a35.772,35.772,0,0,1-13.44,2.971C66.408,90.983,66.095,90.987,65.789,90.987Zm0-71.765a35.6,35.6,0,0,0-23.833,9.112A36.018,36.018,0,0,0,32.9,40.96a35.49,35.49,0,0,0-2.845,13.995c0,.841.03,1.694.09,2.536a35.276,35.276,0,0,0,4.317,14.668A35.686,35.686,0,0,0,65.789,90.685c.3,0,.615,0,.926-.011A35.74,35.74,0,0,0,81.034,22.629a35.4,35.4,0,0,0-14.842-3.4c-.136,0-.267,0-.4,0Z" transform="translate(-29.152 -18.316)" fill="#282828" stroke="#282828" stroke-linecap="round" stroke-linejoin="round" stroke-width="0.5"/>
          </g>
        </g>
        <g id="Group_648" data-name="Group 648" transform="translate(23.429 59.502)">
          <g id="Group_647" data-name="Group 647" transform="translate(0 0)">
            <rect id="Rectangle_219" data-name="Rectangle 219" width="11.359" height="0.302" transform="matrix(0.313, -0.95, 0.95, 0.313, 0.191, 10.98)" stroke-width="0.5" stroke="#282828" stroke-linecap="round" stroke-linejoin="round" fill="#282828"/>
            <rect id="Rectangle_220" data-name="Rectangle 220" width="11.661" height="0.604" transform="matrix(0.313, -0.95, 0.95, 0.313, 0, 11.076)" stroke-width="0.5" stroke="#282828" stroke-linecap="round" stroke-linejoin="round" fill="#282828"/>
          </g>
        </g>
        <g id="Group_650" data-name="Group 650" transform="translate(46.95 59.494)">
          <g id="Group_649" data-name="Group 649" transform="translate(0 0)">
            <rect id="Rectangle_221" data-name="Rectangle 221" width="0.302" height="10.836" transform="matrix(0.937, -0.349, 0.349, 0.937, 0.194, 0.3)" stroke-width="0.5" stroke="#282828" stroke-linecap="round" stroke-linejoin="round" fill="#282828"/>
            <rect id="Rectangle_222" data-name="Rectangle 222" width="0.604" height="11.138" transform="matrix(0.937, -0.349, 0.349, 0.937, 0, 0.211)" stroke-width="0.5" stroke="#282828" stroke-linecap="round" stroke-linejoin="round" fill="#282828"/>
          </g>
        </g>
        <g id="Group_652" data-name="Group 652" transform="translate(37.28 52.954)">
          <g id="Group_651" data-name="Group 651" transform="translate(0 0)">
            <rect id="Rectangle_223" data-name="Rectangle 223" width="0.302" height="11.66" transform="translate(0.209 0.461) rotate(-56.402)" stroke-width="0.5" stroke="#282828" stroke-linecap="round" stroke-linejoin="round" fill="#282828"/>
            <rect id="Rectangle_224" data-name="Rectangle 224" width="0.604" height="11.962" transform="matrix(0.553, -0.833, 0.833, 0.553, 0, 0.503)" stroke-width="0.5" stroke="#282828" stroke-linecap="round" stroke-linejoin="round" fill="#282828"/>
          </g>
        </g>
        <g id="Group_654" data-name="Group 654" transform="translate(46.969 46.344)">
          <g id="Group_653" data-name="Group 653" transform="translate(0 0)">
            <rect id="Rectangle_225" data-name="Rectangle 225" width="13.301" height="0.302" transform="translate(0.167 13.379) rotate(-83.382)" stroke-width="0.5" stroke="#282828" stroke-linecap="round" stroke-linejoin="round" fill="#282828"/>
            <rect id="Rectangle_226" data-name="Rectangle 226" width="13.603" height="0.604" transform="matrix(0.115, -0.993, 0.993, 0.115, 0, 13.512)" stroke-width="0.5" stroke="#282828" stroke-linecap="round" stroke-linejoin="round" fill="#282828"/>
          </g>
        </g>
        <g id="Group_656" data-name="Group 656" transform="translate(15.224 24.39)">
          <g id="Group_655" data-name="Group 655">
            <rect id="Rectangle_227" data-name="Rectangle 227" width="10.164" height="0.302" transform="translate(0.179 2.329) rotate(-12.204)" stroke-width="0.5" stroke="#282828" stroke-linecap="round" stroke-linejoin="round" fill="#282828"/>
            <path id="Path_1448" data-name="Path 1448" d="M130.126,182.179l-.128-.59,10.229-2.213.128.59Zm.231-.359L140,179.734Z" transform="translate(-129.998 -179.375)" fill="#282828" stroke="#282828" stroke-linecap="round" stroke-linejoin="round" stroke-width="0.5"/>
          </g>
        </g>
        <g id="Group_658" data-name="Group 658" transform="translate(15.098 26.597)">
          <g id="Group_657" data-name="Group 657">
            <rect id="Rectangle_228" data-name="Rectangle 228" width="0.302" height="11.221" transform="matrix(0.894, -0.447, 0.447, 0.894, 0.203, 0.338)" stroke-width="0.5" stroke="#282828" stroke-linecap="round" stroke-linejoin="round" fill="#282828"/>
            <path id="Path_1449" data-name="Path 1449" d="M134.315,204.567l-5.153-10.306.54-.27,5.153,10.306ZM129.567,194.4l4.883,9.766Z" transform="translate(-129.162 -193.991)" fill="#282828" stroke="#282828" stroke-linecap="round" stroke-linejoin="round" stroke-width="0.5"/>
          </g>
        </g>
        <g id="Group_660" data-name="Group 660" transform="translate(15.406 36.642)">
          <g id="Group_659" data-name="Group 659">
            <rect id="Rectangle_229" data-name="Rectangle 229" width="11.552" height="0.302" transform="matrix(0.408, -0.913, 0.913, 0.408, 0.197, 10.747)" stroke-width="0.5" stroke="#282828" stroke-linecap="round" stroke-linejoin="round" fill="#282828"/>
            <path id="Path_1450" data-name="Path 1450" d="M131.752,271.6l-.551-.247,4.834-10.824.551.246Zm-.153-.4,4.588-10.273Z" transform="translate(-131.201 -260.531)" fill="#282828" stroke="#282828" stroke-linecap="round" stroke-linejoin="round" stroke-width="0.5"/>
          </g>
        </g>
        <g id="Group_662" data-name="Group 662" transform="translate(15.548 47.13)">
          <g id="Group_661" data-name="Group 661" transform="translate(0 0)">
            <rect id="Rectangle_230" data-name="Rectangle 230" width="0.302" height="11.501" transform="matrix(0.151, -0.988, 0.988, 0.151, 0.172, 0.47)" stroke-width="0.5" stroke="#282828" stroke-linecap="round" stroke-linejoin="round" fill="#282828"/>
            <rect id="Rectangle_231" data-name="Rectangle 231" width="0.604" height="11.802" transform="matrix(0.151, -0.988, 0.988, 0.151, 0, 0.597)" stroke-width="0.5" stroke="#282828" stroke-linecap="round" stroke-linejoin="round" fill="#282828"/>
          </g>
        </g>
        <g id="Group_664" data-name="Group 664" transform="translate(26.806 49.036)">
          <g id="Group_663" data-name="Group 663">
            <rect id="Rectangle_232" data-name="Rectangle 232" width="0.302" height="10.55" transform="translate(0.154 0.16) rotate(-1.113)" stroke-width="0.5" stroke="#282828" stroke-linecap="round" stroke-linejoin="round" fill="#282828"/>
            <path id="Path_1451" data-name="Path 1451" d="M206.928,353.492l-.211-10.85.6-.012.211,10.85Zm.1-10.554.2,10.246Z" transform="translate(-206.717 -342.63)" fill="#282828" stroke="#282828" stroke-linecap="round" stroke-linejoin="round" stroke-width="0.5"/>
          </g>
        </g>
        <g id="Group_666" data-name="Group 666" transform="translate(27.027 52.953)">
          <g id="Group_665" data-name="Group 665">
            <rect id="Rectangle_233" data-name="Rectangle 233" width="12.118" height="0.302" transform="matrix(0.847, -0.532, 0.532, 0.847, 0.207, 6.659)" stroke-width="0.5" stroke="#282828" stroke-linecap="round" stroke-linejoin="round" fill="#282828"/>
            <path id="Path_1452" data-name="Path 1452" d="M208.5,375.7l-.321-.511,10.513-6.613.321.511Zm.095-.416h0l10-6.292h0Z" transform="translate(-208.183 -368.576)" fill="#282828" stroke="#282828" stroke-linecap="round" stroke-linejoin="round" stroke-width="0.5"/>
          </g>
        </g>
        <g id="Group_668" data-name="Group 668" transform="translate(48.657 45.71)">
          <g id="Group_667" data-name="Group 667" transform="translate(0 0)">
            <rect id="Rectangle_234" data-name="Rectangle 234" width="11.994" height="0.302" transform="translate(0.157 0.667) rotate(-2.435)" stroke-width="0.5" stroke="#282828" stroke-linecap="round" stroke-linejoin="round" fill="#282828"/>
            <rect id="Rectangle_235" data-name="Rectangle 235" width="12.295" height="0.604" transform="translate(0 0.522) rotate(-2.435)" stroke-width="0.5" stroke="#282828" stroke-linecap="round" stroke-linejoin="round" fill="#282828"/>
          </g>
        </g>
        <g id="Group_670" data-name="Group 670" transform="translate(52.786 34.051)">
          <g id="Group_669" data-name="Group 669">
            <rect id="Rectangle_236" data-name="Rectangle 236" width="0.302" height="13.974" transform="matrix(0.835, -0.55, 0.55, 0.835, 0.209, 0.375)" stroke-width="0.5" stroke="#282828" stroke-linecap="round" stroke-linejoin="round" fill="#282828"/>
            <path id="Path_1453" data-name="Path 1453" d="M386.659,255.63,378.811,243.7l.5-.332,7.848,11.926Zm-7.429-11.839,7.516,11.421Z" transform="translate(-378.811 -243.372)" fill="#282828" stroke="#282828" stroke-linecap="round" stroke-linejoin="round" stroke-width="0.5"/>
          </g>
        </g>
        <g id="Group_672" data-name="Group 672" transform="translate(52.789 26.155)">
          <g id="Group_671" data-name="Group 671">
            <rect id="Rectangle_237" data-name="Rectangle 237" width="9.873" height="0.302" transform="translate(0.212 8.098) rotate(-53.018)" stroke-width="0.5" stroke="#282828" stroke-linecap="round" stroke-linejoin="round" fill="#282828"/>
            <path id="Path_1454" data-name="Path 1454" d="M379.315,199.555l-.482-.363,6.122-8.128.482.363Zm-.06-.423,5.758-7.645Z" transform="translate(-378.832 -191.064)" fill="#282828" stroke="#282828" stroke-linecap="round" stroke-linejoin="round" stroke-width="0.5"/>
          </g>
        </g>
        <g id="Group_674" data-name="Group 674" transform="translate(47.51 24.81)">
          <g id="Group_673" data-name="Group 673" transform="translate(0 0)">
            <rect id="Rectangle_238" data-name="Rectangle 238" width="0.302" height="11.444" transform="translate(0.167 0.467) rotate(-83.326)" stroke-width="0.5" stroke="#282828" stroke-linecap="round" stroke-linejoin="round" fill="#282828"/>
            <rect id="Rectangle_239" data-name="Rectangle 239" width="0.604" height="11.746" transform="translate(0 0.6) rotate(-83.326)" stroke-width="0.5" stroke="#282828" stroke-linecap="round" stroke-linejoin="round" fill="#282828"/>
          </g>
        </g>
        <g id="Group_676" data-name="Group 676" transform="translate(60.533 45.679)">
          <g id="Group_675" data-name="Group 675">
            <rect id="Rectangle_240" data-name="Rectangle 240" width="0.302" height="10.324" transform="matrix(0.448, -0.894, 0.894, 0.448, 0.202, 0.473)" stroke-width="0.5" stroke="#282828" stroke-linecap="round" stroke-linejoin="round" fill="#282828"/>
            <path id="Path_1455" data-name="Path 1455" d="M439.627,325.694l-9.5-4.758.27-.54,9.5,4.758Zm-9.1-4.893,8.961,4.488h0l-8.961-4.488Z" transform="translate(-430.126 -320.396)" fill="#282828" stroke="#282828" stroke-linecap="round" stroke-linejoin="round" stroke-width="0.5"/>
          </g>
        </g>
        <g id="Group_678" data-name="Group 678" transform="translate(58.834 22.983)">
          <g id="Group_677" data-name="Group 677">
            <rect id="Rectangle_241" data-name="Rectangle 241" width="11.622" height="0.302" transform="matrix(0.963, -0.27, 0.27, 0.963, 0.186, 3.329)" stroke-width="0.5" stroke="#282828" stroke-linecap="round" stroke-linejoin="round" fill="#282828"/>
            <path id="Path_1456" data-name="Path 1456" d="M419.038,173.857l-.163-.581,11.479-3.225.163.581Zm.209-.372,10.9-3.061Z" transform="translate(-418.875 -170.051)" fill="#282828" stroke="#282828" stroke-linecap="round" stroke-linejoin="round" stroke-width="0.5"/>
          </g>
        </g>
        <g id="Group_680" data-name="Group 680" transform="translate(47.05 3.72)">
          <g id="Group_679" data-name="Group 679">
            <rect id="Rectangle_242" data-name="Rectangle 242" width="10.837" height="0.302" transform="matrix(0.432, -0.902, 0.902, 0.432, 0.202, 9.974)" stroke-width="0.5" stroke="#282828" stroke-linecap="round" stroke-linejoin="round" fill="#282828"/>
            <path id="Path_1457" data-name="Path 1457" d="M341.362,52.76l-.545-.261,4.814-10.045.545.261Zm-.142-.4,4.553-9.5Z" transform="translate(-340.817 -42.454)" fill="#282828" stroke="#282828" stroke-linecap="round" stroke-linejoin="round" stroke-width="0.5"/>
          </g>
        </g>
        <g id="Group_682" data-name="Group 682" transform="translate(23.964 2.453)">
          <g id="Group_681" data-name="Group 681" transform="translate(0 0)">
            <rect id="Rectangle_243" data-name="Rectangle 243" width="0.302" height="12.651" transform="matrix(0.939, -0.344, 0.344, 0.939, 0.194, 0.297)" stroke-width="0.5" stroke="#282828" stroke-linecap="round" stroke-linejoin="round" fill="#282828"/>
            <rect id="Rectangle_244" data-name="Rectangle 244" width="0.604" height="12.953" transform="translate(0 0.208) rotate(-20.104)" stroke-width="0.5" stroke="#282828" stroke-linecap="round" stroke-linejoin="round" fill="#282828"/>
          </g>
        </g>
        <g id="Group_684" data-name="Group 684" transform="translate(3.098 22.21)">
          <g id="Group_683" data-name="Group 683">
            <rect id="Rectangle_245" data-name="Rectangle 245" width="0.302" height="12.843" transform="matrix(0.336, -0.942, 0.942, 0.336, 0.193, 0.477)" stroke-width="0.5" stroke="#282828" stroke-linecap="round" stroke-linejoin="round" fill="#282828"/>
            <path id="Path_1458" data-name="Path 1458" d="M62.05,169.928l-12.378-4.423.2-.569,12.378,4.423Zm-11.993-4.605,11.81,4.219Z" transform="translate(-49.672 -164.937)" fill="#282828" stroke="#282828" stroke-linecap="round" stroke-linejoin="round" stroke-width="0.5"/>
          </g>
        </g>
        <g id="Group_686" data-name="Group 686" transform="translate(25.035 14.095)">
          <g id="Group_685" data-name="Group 685">
            <path id="Path_1459" data-name="Path 1459" d="M196.536,123.208l-.287-.093,3.341-10.334,8.565,6.059-.174.246-8.229-5.821Z" transform="translate(-196.058 -112.539)" fill="#282828" stroke="#282828" stroke-linecap="round" stroke-linejoin="round" stroke-width="0.5"/>
            <path id="Path_1460" data-name="Path 1460" d="M195.564,122.038l-.575-.186,3.451-10.673,8.856,6.264-.349.493-8.185-5.79Zm-.194-.38,3.232-9.995Zm5.857-8.138,5.648,4Z" transform="translate(-194.989 -111.179)" fill="#282828" stroke="#282828" stroke-linecap="round" stroke-linejoin="round" stroke-width="0.5"/>
          </g>
        </g>
        <g id="Group_688" data-name="Group 688" transform="translate(20.121 20.194)">
          <g id="Group_687" data-name="Group 687">
            <path id="Path_1461" data-name="Path 1461" d="M180.835,185.756l-.069-.027-10.514-4.116-.026-.048-6.691-12.353L168.5,156.9l11.8-4.242,10.751,4.652,5.487,9.319-.024.066-4.319,12.237-.046.028Zm-10.37-4.384,10.342,4.049,11.137-6.693,4.259-12.068-5.365-9.114-10.551-4.565-11.555,4.155-4.864,12.057Z" transform="translate(-163.368 -152.494)" fill="#282828" stroke="#282828" stroke-linecap="round" stroke-linejoin="round" stroke-width="0.5"/>
            <path id="Path_1462" data-name="Path 1462" d="M179.913,185.011l-.138-.054L169.21,180.82l-.053-.1-6.725-12.415,5.019-12.443,11.915-4.285,10.851,4.695,5.547,9.422-4.384,12.42-.093.056Zm-10.145-4.3,10.116,3.961h0l-.069-.027Zm-.133-.376,10.221,4,11.027-6.627,4.218-11.951-5.3-9.011-10.451-4.522-11.436,4.112L163.1,168.271Zm-.213.241h0l-.026-.048-6.631-12.241,1.66-4.115-1.66,4.115,6.657,12.29Zm21.71-2.664-3.536,2.125Zm2.276-15.625,2.025,3.439-2.763,7.829,2.763-7.829ZM167.681,156.1l2.556-.919Z" transform="translate(-162.432 -151.581)" fill="#282828" stroke="#282828" stroke-linecap="round" stroke-linejoin="round" stroke-width="0.5"/>
          </g>
        </g>
        <g id="Group_690" data-name="Group 690" transform="translate(0.008)">
          <g id="Group_689" data-name="Group 689">
            <path id="Path_1463" data-name="Path 1463" d="M68.281,92.446,57.963,79.224,43.112,83.282l3.166-16.44-15.3-8.222,15-12.5L43.015,28.853l16.267,4.858,8.449-14.134L78.158,32.909l15.559-2.046-3.78,14.845,13.839,10.316L91.663,65.4l1.12,16.7L78.054,79.218Zm-10.2-13.566,10.2,13.067,9.651-13.061.094.018,14.437,2.825-1.1-16.471,11.926-9.23-13.683-10.2,3.72-14.609L78.026,33.231,67.765,20.11,59.421,34.068,43.4,29.281,46.3,46.238,31.517,58.566l15.1,8.115L43.5,82.863Z" transform="translate(-30.712 -19.311)" fill="#282828" stroke="#282828" stroke-linecap="round" stroke-linejoin="round" stroke-width="0.5"/>
            <path id="Path_1464" data-name="Path 1464" d="M66.775,91.2,56.4,77.9l-14.988,4.1L44.6,65.425,29.2,57.15,44.3,44.559,41.317,27.141,57.7,32.035l8.5-14.222L76.715,31.25,92.41,29.186,88.6,44.149l13.918,10.374L90.31,63.97l1.128,16.818-14.828-2.9Zm-.007-.5h0l9.162-12.4ZM56.625,77.21,66.762,90.2l9.589-12.978,14.432,2.824-1.1-16.356,11.832-9.158-13.6-10.141L91.6,29.9,76.452,31.894,66.273,18.878l-8.292,13.87L42.076,28l2.882,16.8L30.276,57.042l15,8.062L42.185,81.156Zm-.114.345,7.159,9.174-7.159-9.174-8.1,2.213ZM36.792,60.886l8.146,4.378L41.8,81.575l3.141-16.311ZM83.355,78.9l7.756,1.518L90.7,74.363l.406,6.054ZM29.74,57.1h0l10.84-9.038ZM88.257,44.27l13.761,10.257L88.257,44.27l3.75-14.727-7.96,1.047,7.96-1.047Zm-43.685.066.049.286ZM72.449,26.285l4.134,5.287ZM41.7,27.569l11.328,3.383Z" transform="translate(-29.203 -17.813)" fill="#282828" stroke="#282828" stroke-linecap="round" stroke-linejoin="round" stroke-width="0.5"/>
          </g>
        </g>
        <g id="Group_692" data-name="Group 692" transform="translate(4.635 47.115)">
          <g id="Group_691" data-name="Group 691" transform="translate(0 0)">
            <rect id="Rectangle_246" data-name="Rectangle 246" width="12.719" height="0.302" transform="translate(0.207 6.892) rotate(-31.703)" stroke-width="0.5" stroke="#282828" stroke-linecap="round" stroke-linejoin="round" fill="#282828"/>
            <rect id="Rectangle_247" data-name="Rectangle 247" width="13.021" height="0.604" transform="matrix(0.851, -0.526, 0.526, 0.851, 0, 6.844)" stroke-width="0.5" stroke="#282828" stroke-linecap="round" stroke-linejoin="round" fill="#282828"/>
          </g>
        </g>
        <g id="Group_694" data-name="Group 694" transform="translate(36.753 13.424)">
          <g id="Group_693" data-name="Group 693" transform="translate(0 0)">
            <rect id="Rectangle_248" data-name="Rectangle 248" width="12.356" height="0.302" transform="translate(0.209 6.968) rotate(-33.162)" stroke-width="0.5" stroke="#282828" stroke-linecap="round" stroke-linejoin="round" fill="#282828"/>
            <rect id="Rectangle_249" data-name="Rectangle 249" width="12.658" height="0.604" transform="matrix(0.837, -0.547, 0.547, 0.837, 0, 6.925)" stroke-width="0.5" stroke="#282828" stroke-linecap="round" stroke-linejoin="round" fill="#282828"/>
          </g>
        </g>
        <g id="Group_696" data-name="Group 696" transform="translate(47.082 13.6)">
          <g id="Group_695" data-name="Group 695" transform="translate(0 0)">
            <rect id="Rectangle_250" data-name="Rectangle 250" width="0.302" height="11.372" transform="matrix(1, -0.027, 0.027, 1, 0.155, 0.163)" stroke-width="0.5" stroke="#282828" stroke-linecap="round" stroke-linejoin="round" fill="#282828"/>
            <rect id="Rectangle_251" data-name="Rectangle 251" width="0.604" height="11.674" transform="translate(0 0.016) rotate(-1.549)" stroke-width="0.5" stroke="#282828" stroke-linecap="round" stroke-linejoin="round" fill="#282828"/>
          </g>
        </g>
      </g>
    </g>
    <g id="Group_736" data-name="Group 736" transform="translate(144.096 59.488)">
      <g id="Group_722" data-name="Group 722">
        <g id="Group_721" data-name="Group 721">
          <g id="Group_707" data-name="Group 707" transform="translate(0.076 0.075)">
            <g id="Group_700" data-name="Group 700" transform="translate(88.743 11.976)">
              <g id="Group_699" data-name="Group 699">
                <path id="Path_1465" data-name="Path 1465" d="M1132.464,227.079a3.718,3.718,0,0,1-.668,2.051,12.52,12.52,0,0,1-2.345,2.589,15,15,0,0,1-3.276,2.178,3.087,3.087,0,0,1-2.44.218,3.858,3.858,0,0,1-1.564-1.288,3.089,3.089,0,0,1-.6-1.228.892.892,0,0,1,.187-.782,2.189,2.189,0,0,1,1.247-.579c.775-.193,2.051-.405,3.042-.706a7.612,7.612,0,0,0,2.19-1.064,3.8,3.8,0,0,0,.981-.94c.2-.285.294-.541-.01-1.1s-1.019-1.431-1.908-2.823-1.972-3.3-2.64-4.51a13.184,13.184,0,0,1-1.051-2.114,1.764,1.764,0,0,1-.038-1.064,2.287,2.287,0,0,1,.481-.908,1.9,1.9,0,0,1,.81-.516,5.644,5.644,0,0,1,1.405-.313,10.979,10.979,0,0,1,2.4,0,7.056,7.056,0,0,1,2.3.662,2.529,2.529,0,0,1,1.171,1.117,1.754,1.754,0,0,1,.089,1.336,3.013,3.013,0,0,1-.738,1.2.661.661,0,0,1-.677.209.735.735,0,0,1-.424-.418,5,5,0,0,0-.532-.956,2.816,2.816,0,0,0-1.253-.959,1.7,1.7,0,0,0-1.32.244,2.259,2.259,0,0,0-.779.674c-.117.187-.047.282.386.867.449.589,1.266,1.665,2.184,2.953.934,1.282,1.962,2.779,2.579,3.8A4.219,4.219,0,0,1,1132.464,227.079Z" transform="translate(-1121.554 -214.112)" fill="#282828"/>
              </g>
            </g>
            <g id="Group_702" data-name="Group 702" transform="translate(56.227 9.86)">
              <g id="Group_701" data-name="Group 701">
                <path id="Path_1466" data-name="Path 1466" d="M940.515,215.78c.953.184.934.408.9.627a2.114,2.114,0,0,1-.215.684,4.234,4.234,0,0,1-.5.715c-.139.152-.19.152-.874.047s-2-.316-3.83-.611-4.172-.684-5.856-.921c.4,3.4.4,3.479.4,3.57a.793.793,0,0,1-.051.32.862.862,0,0,1-.32.37,1.233,1.233,0,0,1-.671.177,4.227,4.227,0,0,1-1.143-.117,3.506,3.506,0,0,1-1.086-.4,1.326,1.326,0,0,1-.509-.535c-.092-.171-.133-.313-.127-1.276s.06-2.754.051-3.947a12.431,12.431,0,0,0-.351-3.118c-.288-1.3-.8-3.292-1.06-4.289s-.269-1-.845-.573-1.709,1.269-3.187,2.58-3.295,3.08-4.748,4.292a24.112,24.112,0,0,1-3.051,2.194c-.529.332-.529.342-.506.449s.082.3.2.769a6.889,6.889,0,0,0,.548,1.633,1.223,1.223,0,0,0,.814.592,1.745,1.745,0,0,0,.883.029,6.938,6.938,0,0,0,2.2-.646c.839-.421,1.655-1.114,2.51-1.659a7,7,0,0,1,2.314-1.038.934.934,0,0,1,.965.32c.13.171.13.275.092.614s-.12.912-.18,1.231-.1.383-.446.734A16.859,16.859,0,0,1,921,220.2a19.844,19.844,0,0,1-2.551,1.564,4.518,4.518,0,0,1-1.842.614,3.846,3.846,0,0,1-1.833-.4,16.421,16.421,0,0,1-1.836-1.079c-.538-.329-.965-.538-1.2-.655s-.269-.143-.392-.608-.313-1.364-.38-1.9a6.76,6.76,0,0,0-.086-.842c-.051-.117-.225-.171-.345-.26a.79.79,0,0,1-.263-.373.883.883,0,0,1-.07-.475,1.266,1.266,0,0,1,.187-.421c.057-.12.1-.215-.177-2.953a9.041,9.041,0,0,1-.88,1.108,2.106,2.106,0,0,1-1.1.75,2.257,2.257,0,0,1-1.2-.13c-.294-.127-.354-.282-.459-.823s-.253-1.465-.323-1.991a3.98,3.98,0,0,1-.085-.8c.006-.136.032-.279.316-.449a22.694,22.694,0,0,0,2.982-1.849c-.26-2.9-.269-2.988-.269-2.988a.414.414,0,0,1,.1-.073c.108-.066.313-.184.554-.361s.513-.408.715-.586a1.993,1.993,0,0,1,.481-.351.539.539,0,0,1,.434.006c.108.063.165.2.228.658s.142,1.256.181,1.662a2.78,2.78,0,0,1,.016.418s.009-.016.462-.332,1.361-.946,2.5-1.6a18.591,18.591,0,0,1,3.6-1.639,4.337,4.337,0,0,1,2.266-.149c.421.123.5.3.465.526s-.174.481-1.124,1.029a35.714,35.714,0,0,0-4.134,2.462,16.325,16.325,0,0,0-3.067,3.134c-.554.722-.554.842-.554.991s0,.329.022.807.06,1.244.079,1.643.019.424.386.054,1.092-1.117,2.9-2.779,4.656-4.229,6.238-5.593a13.289,13.289,0,0,1,2.124-1.662c.215-.123.339-.2.405-.241s.1-.041.364-.057.779-.035,1.241-.06.9-.054,1.133-.07.253-.009.285.225.073.7.187,1.69.313,2.491.313,2.608c1.9-4.023,2.485-4.941,3-5.6a4.126,4.126,0,0,1,1.627-1.352,7,7,0,0,1,2.13-.535,2.951,2.951,0,0,1,1.722.244,1.92,1.92,0,0,1,.886,1.545,8.227,8.227,0,0,1-.275,3.023,11.693,11.693,0,0,1-1.456,3.026,30.032,30.032,0,0,1-2.339,3.361,9.652,9.652,0,0,1-1.89,1.738c-.459.32-.718.465-.845.585a.267.267,0,0,0-.1.313c.035.1.1.19.981.418a44.582,44.582,0,0,0,4.4.829C937.657,215.448,939.565,215.593,940.515,215.78Zm-6.928-11.224c.092-.434-.035-.674-.209-.779a.632.632,0,0,0-.57,0,1.571,1.571,0,0,0-.661.459,6.133,6.133,0,0,0-1.041,1.557,21.4,21.4,0,0,0-1.253,3.1,3.961,3.961,0,0,0-.25,1.855c.089.212.317-.047.506-.3s.354-.519.532-.776.367-.513.62-.848.554-.756.832-1.2c.263-.443.513-.908.794-1.456A8.61,8.61,0,0,0,933.586,204.556Z" transform="translate(-906.171 -200.096)" fill="#282828"/>
              </g>
            </g>
            <g id="Group_704" data-name="Group 704" transform="translate(27.542 7.683)">
              <g id="Group_703" data-name="Group 703">
                <path id="Path_1467" data-name="Path 1467" d="M745.536,205.208a1.9,1.9,0,0,1-.215,1.089,1.747,1.747,0,0,1-.51.7.985.985,0,0,1-.794.221,2.58,2.58,0,0,1-1.573-.87c-.643-.662-1.405-1.814-2.386-2.991s-2.181-2.377-2.782-2.966-.6-.563-.453.7a41.338,41.338,0,0,1,.383,5.1c-.066,1.339-.481,1.51-.775,1.592a1.617,1.617,0,0,1-.725.063c-.256-.022-.6-.073-.867-.108s-.468-.063-.75-.541a7.945,7.945,0,0,1-.829-3.213c-.184-1.8-.184-4.475-.184-6.679s0-3.947-.016-4.817-.038-.87-.487-.354-1.336,1.545-1.877,2.244a2.908,2.908,0,0,0-.766,2.1,25.367,25.367,0,0,0,.4,4.643c.32,1.924.832,4.083,1.064,5.162s.184,1.079-.082,1.165-.76.256-1.07.339a.716.716,0,0,1-.662-.035,2.017,2.017,0,0,1-.892-1.114,13.2,13.2,0,0,1-.776-3.592c-.158-1.592-.184-3.532-.3-4.251s-.342-.234-.943.415a21.168,21.168,0,0,1-2.488,2.146c-.9.687-1.744,1.25-2.168,1.529s-.453.285-.443,1.253.063,2.906.025,4.083-.158,1.589-.665,1.788a3.6,3.6,0,0,1-2.143-.073,5.4,5.4,0,0,1-1.817-1.079,4.272,4.272,0,0,1-.722-.8c-.111-.155-.133-.206.028-1.086s.5-2.6,1-4.634,1.165-4.39,1.908-6.485a53.928,53.928,0,0,1,2.355-5.507,40.543,40.543,0,0,1,1.962-3.612c.475-.747.722-.943,1.139-1.016a3.307,3.307,0,0,1,1.4.1,1.659,1.659,0,0,1,.918.772,7.506,7.506,0,0,1,1.149,2.314,25.262,25.262,0,0,1,.725,3.662c.123.915.123,1.149.3.877s.535-1.041,1.222-2.1,1.719-2.393,2.231-3.07.532-.7.614-.668.241.114.44.218a4.625,4.625,0,0,0,.68.313,6.624,6.624,0,0,1,.706.225,1.241,1.241,0,0,1,.7.877,11.913,11.913,0,0,1,.209,2.532c0,1.06,0,2.266.025,2.871s.047.6.089.589.073-.048,1.139-.988,3.137-2.785,4.279-3.83c1.158-1.045,1.38-1.288,1.621-1.447a1.567,1.567,0,0,1,.7-.256.979.979,0,0,1,.56.092.815.815,0,0,1,.361.427,1.456,1.456,0,0,1,.1.953,5.3,5.3,0,0,1-1.1,1.858c-.718.931-1.867,2.272-2.785,3.387s-1.6,2-1.966,2.472-.386.522-.386.56.029.057.168.187a6.716,6.716,0,0,1,.652.731,9.125,9.125,0,0,0,1.5,1.649c.94.839,2.519,2.045,3.431,2.795S745.479,204.854,745.536,205.208Zm-18.864-9.249c.187-.434.07-.836-.07-1.776s-.294-2.415-.478-3.26-.4-1.054-.579-1.155a.6.6,0,0,0-.446-.06c-.1.035-.143.089-.383.722s-.684,1.845-1.165,3.529a33.085,33.085,0,0,0-1.079,4.865c-.082,1.029.26.934.506.842a1.878,1.878,0,0,0,.576-.31,5.709,5.709,0,0,0,.649-.595c.263-.26.563-.6.791-.851s.374-.421.69-.741A4.562,4.562,0,0,0,726.672,195.96Z" transform="translate(-716.155 -185.672)" fill="#282828"/>
              </g>
            </g>
            <g id="Group_706" data-name="Group 706">
              <g id="Group_705" data-name="Group 705">
                <path id="Path_1468" data-name="Path 1468" d="M560.438,155.71c.187,2.352-.228,2.893-.722,3.038a1.66,1.66,0,0,1-1.323-.291c-.269-.2-.247-.348-.807-3.507s-1.719-9.34-2.326-12.464-.693-3.2-.8-3.238-.26-.038-.525.87a29.963,29.963,0,0,0-.915,5.935c-.263,3.21-.383,7.815-.424,10.394s.016,3.111-.43,3.675a5.3,5.3,0,0,1-1.985,1.386.925.925,0,0,1-1.276-.367,17.144,17.144,0,0,1-1.747-3.64c-.95-2.333-2.4-6.156-3.311-8.261s-1.31-2.5-1.548-2.687-.307-.158-.671,3.054-1.029,9.606-1.719,13.886a31.294,31.294,0,0,1-1.9,7.536c-.507,1.1-.8,1.152-1.25.994a8.015,8.015,0,0,1-1.564-.889,5.173,5.173,0,0,1-1.193-1.035,1.431,1.431,0,0,1-.275-1.079c.057-.389.221-.836,1.127-4.605s2.554-10.885,3.649-15.174c1.111-4.292,1.674-5.764,2.238-6.473s1.124-.665,1.9-.038a13.539,13.539,0,0,1,2.9,3.912,63.96,63.96,0,0,1,3.14,6.761c.662,1.719.662,2.184.747.9s.256-4.324.529-7.194a49.509,49.509,0,0,1,1.149-7.486,11.85,11.85,0,0,1,1.665-3.776c.5-.7.817-.943,1.2-1.032a1.55,1.55,0,0,1,1.4.468,6.887,6.887,0,0,1,1.712,3.051,68.108,68.108,0,0,1,1.728,7.527C559.472,149.19,560.254,153.359,560.438,155.71Z" transform="translate(-533.716 -134.781)" fill="#282828"/>
              </g>
            </g>
          </g>
          <g id="Group_720" data-name="Group 720">
            <g id="Group_709" data-name="Group 709">
              <g id="Group_708" data-name="Group 708">
                <path id="Path_1469" data-name="Path 1469" d="M536.659,171.745a1.065,1.065,0,0,1-.347-.071,8.222,8.222,0,0,1-1.581-.9,5.092,5.092,0,0,1-1.211-1.052,1.5,1.5,0,0,1-.29-1.133c.027-.184.077-.378.209-.9.161-.627.429-1.677.919-3.718.276-1.149.621-2.605,1-4.2.842-3.561,1.89-7.992,2.652-10.977,1.178-4.549,1.717-5.828,2.252-6.5a1.255,1.255,0,0,1,.824-.544,1.661,1.661,0,0,1,1.182.494,13.768,13.768,0,0,1,2.921,3.934,64.076,64.076,0,0,1,3.144,6.77h0c.155.4.271.73.365.994.073.207.14.394.187.5.02-.141.036-.386.049-.58.016-.234.034-.526.055-.864.094-1.49.251-3.983.474-6.332a48.945,48.945,0,0,1,1.151-7.5,12.1,12.1,0,0,1,1.676-3.8c.48-.676.818-.964,1.248-1.062A1.647,1.647,0,0,1,555,134.8a7.156,7.156,0,0,1,1.734,3.084,69.144,69.144,0,0,1,1.731,7.536c.658,3.361,1.436,7.52,1.619,9.862.2,2.487-.281,2.971-.775,3.117a1.727,1.727,0,0,1-1.389-.3c-.248-.181-.267-.294-.6-2.18-.066-.38-.145-.834-.241-1.375-.565-3.188-1.714-9.317-2.326-12.463-.52-2.635-.665-3.151-.752-3.181a.066.066,0,0,0-.06,0c-.069.036-.188.207-.368.821a29.642,29.642,0,0,0-.912,5.919c-.3,3.635-.4,8.871-.424,10.39,0,.309-.008.589-.011.843-.022,1.862-.028,2.362-.436,2.878a5.342,5.342,0,0,1-2.017,1.41,1,1,0,0,1-1.362-.391,16.993,16.993,0,0,1-1.758-3.658c-.363-.892-.793-1.987-1.249-3.148-.736-1.874-1.5-3.812-2.061-5.111-.961-2.214-1.342-2.514-1.525-2.658a.229.229,0,0,0-.07-.045,15.313,15.313,0,0,0-.479,3.049c-.067.591-.145,1.289-.231,2.062-.39,3.517-.925,8.333-1.488,11.827a32.676,32.676,0,0,1-1.9,7.555C537.271,171.48,537,171.745,536.659,171.745Zm4.525-29.843a.746.746,0,0,0-.084,0,1.115,1.115,0,0,0-.722.487c-.509.641-1.058,1.942-2.224,6.445-.762,2.983-1.809,7.414-2.652,10.975-.376,1.592-.721,3.049-1,4.2-.49,2.042-.759,3.093-.92,3.72-.131.512-.18.7-.206.878a1.355,1.355,0,0,0,.262,1.024,4.96,4.96,0,0,0,1.175,1.017,8.092,8.092,0,0,0,1.546.881c.384.134.645.16,1.156-.954a32.527,32.527,0,0,0,1.89-7.517c.563-3.49,1.1-8.3,1.487-11.819.086-.774.163-1.472.231-2.063.319-2.813.411-3.1.575-3.172.088-.036.166.026.218.067.308.242.712.739,1.57,2.716.566,1.3,1.327,3.241,2.063,5.116.455,1.16.886,2.255,1.248,3.146a16.922,16.922,0,0,0,1.737,3.623.852.852,0,0,0,1.189.342,5.253,5.253,0,0,0,1.951-1.362c.377-.476.382-.92.4-2.786,0-.254.006-.534.011-.843.024-1.52.127-6.76.424-10.4a29.8,29.8,0,0,1,.918-5.95c.207-.709.341-.859.443-.913a.216.216,0,0,1,.179-.008c.152.054.215.076.85,3.295.612,3.147,1.762,9.277,2.327,12.466.1.542.175,1,.241,1.376.312,1.792.338,1.939.536,2.083a1.6,1.6,0,0,0,1.257.28c.411-.121.859-.567.668-2.96-.182-2.335-.959-6.488-1.616-9.845a69.122,69.122,0,0,0-1.726-7.517,7.019,7.019,0,0,0-1.691-3.019,1.486,1.486,0,0,0-1.336-.451c-.328.075-.637.269-1.157,1a11.963,11.963,0,0,0-1.654,3.752,48.833,48.833,0,0,0-1.147,7.473c-.223,2.347-.379,4.839-.473,6.328-.021.339-.04.631-.055.864-.045.681-.06.792-.168.806s-.154-.106-.361-.69c-.093-.263-.21-.59-.364-.99h0a63.888,63.888,0,0,0-3.135-6.751,13.829,13.829,0,0,0-2.884-3.89A1.671,1.671,0,0,0,541.185,141.9Z" transform="translate(-533.215 -134.284)" fill="#282828"/>
              </g>
            </g>
            <g id="Group_711" data-name="Group 711" transform="translate(27.542 7.682)">
              <g id="Group_710" data-name="Group 710">
                <path id="Path_1470" data-name="Path 1470" d="M719.654,209.781a4.449,4.449,0,0,1-1.319-.207,5.515,5.515,0,0,1-1.843-1.094,4.358,4.358,0,0,1-.734-.814c-.132-.186-.142-.278.016-1.142.088-.491.421-2.279,1-4.638.413-1.669,1.079-4.15,1.911-6.493a54,54,0,0,1,2.358-5.515,40.853,40.853,0,0,1,1.967-3.619c.467-.735.734-.97,1.19-1.05a3.357,3.357,0,0,1,1.434.1,1.729,1.729,0,0,1,.957.8,7.57,7.57,0,0,1,1.16,2.336,25.079,25.079,0,0,1,.727,3.674l.041.313a5.411,5.411,0,0,0,.091.577c.008-.011.018-.025.031-.044.058-.089.14-.241.244-.433.208-.383.521-.963.977-1.665.623-.952,1.527-2.142,2.067-2.854l.182-.24c.553-.73.553-.73.689-.673.082.032.23.108.445.221a4.62,4.62,0,0,0,.669.309c.085.03.168.052.256.075a2.723,2.723,0,0,1,.457.153,1.309,1.309,0,0,1,.737.925,11.863,11.863,0,0,1,.212,2.551v.422c0,.946,0,1.924.024,2.448a4.759,4.759,0,0,0,.028.488c.092-.077.354-.306,1.074-.94l.872-.776c1.067-.95,2.528-2.25,3.406-3.053.442-.4.747-.68.97-.885a5.692,5.692,0,0,1,.66-.569,1.634,1.634,0,0,1,.736-.268,1.055,1.055,0,0,1,.605.1.883.883,0,0,1,.392.461,1.531,1.531,0,0,1,.106,1,5.436,5.436,0,0,1-1.116,1.888c-.49.634-1.186,1.467-1.859,2.273-.318.381-.635.76-.928,1.115-.942,1.143-1.632,2.039-1.964,2.47a4.967,4.967,0,0,0-.371.516,1.122,1.122,0,0,1,.1.091l.041.038a6.863,6.863,0,0,1,.66.74l.1.14a8.843,8.843,0,0,0,1.383,1.5c.612.546,1.5,1.255,2.292,1.881.421.335.82.651,1.136.912.916.754,1.184,1.065,1.245,1.445a1.956,1.956,0,0,1-.222,1.135,1.822,1.822,0,0,1-.529.724,1.062,1.062,0,0,1-.849.238,2.7,2.7,0,0,1-1.62-.893,17.214,17.214,0,0,1-1.213-1.494c-.35-.461-.746-.984-1.178-1.5-.9-1.082-2.008-2.207-2.777-2.96a2.47,2.47,0,0,0-.4-.347,4.712,4.712,0,0,0,.072.984l.015.132a40.042,40.042,0,0,1,.368,4.976c-.063,1.274-.437,1.551-.831,1.661a1.7,1.7,0,0,1-.752.066c-.19-.016-.421-.048-.646-.078l-.224-.03c-.285-.04-.507-.07-.806-.578a8.063,8.063,0,0,1-.839-3.243c-.184-1.8-.184-4.511-.184-6.686,0-2.2,0-3.946-.016-4.816a3.08,3.08,0,0,0-.043-.627,2.207,2.207,0,0,0-.312.321c-.442.5-1.334,1.542-1.874,2.241a2.83,2.83,0,0,0-.75,2.051,25.483,25.483,0,0,0,.4,4.629c.247,1.487.606,3.1.868,4.275.076.34.143.64.195.884.225,1.024.214,1.141-.122,1.249l-.3.1c-.252.083-.565.187-.785.245a.783.783,0,0,1-.716-.041,2.085,2.085,0,0,1-.927-1.151,13.47,13.47,0,0,1-.781-3.614c-.077-.776-.123-1.636-.163-2.393-.042-.8-.079-1.488-.14-1.853-.046-.279-.1-.3-.1-.3-.055-.013-.235.2-.381.371-.1.114-.205.242-.332.379a21.647,21.647,0,0,1-2.5,2.155c-.665.506-1.4,1.022-2.172,1.532l-.016.011c-.4.264-.4.264-.393,1.179,0,.25.008.565.014.915.018,1.023.04,2.3.011,3.171-.033,1.124-.14,1.631-.713,1.856A2.457,2.457,0,0,1,719.654,209.781Zm5.007-24.459a2.465,2.465,0,0,0-.431.034c-.369.064-.6.215-1.089.982a40.637,40.637,0,0,0-1.958,3.6,53.829,53.829,0,0,0-2.351,5.5c-.83,2.336-1.495,4.812-1.906,6.478-.582,2.355-.914,4.139-1,4.629-.159.865-.134.9-.041,1.029a4.212,4.212,0,0,0,.711.788,5.359,5.359,0,0,0,1.79,1.064,3.515,3.515,0,0,0,2.092.074c.455-.179.582-.533.617-1.72.028-.871.006-2.142-.011-3.163-.006-.351-.011-.666-.014-.917-.01-.96.008-1.009.461-1.307l.016-.011c.774-.508,1.5-1.022,2.164-1.526a21.48,21.48,0,0,0,2.478-2.137c.125-.135.233-.262.328-.374.251-.3.389-.459.536-.419.1.029.164.15.209.417.063.373.1,1.066.142,1.869.04.756.086,1.614.162,2.386a13.321,13.321,0,0,0,.77,3.57,1.95,1.95,0,0,0,.858,1.077.641.641,0,0,0,.605.029c.217-.058.528-.16.778-.243l.29-.095c.219-.07.251-.08.031-1.077-.052-.245-.119-.544-.195-.884-.263-1.178-.622-2.792-.87-4.283a25.612,25.612,0,0,1-.4-4.659,2.98,2.98,0,0,1,.782-2.139c.543-.7,1.437-1.743,1.88-2.248.256-.294.365-.411.479-.369s.132.225.14.773c.016.871.016,2.613.016,4.818,0,2.171,0,4.874.183,6.671a7.925,7.925,0,0,0,.819,3.182c.262.444.433.468.692.5l.228.031c.222.03.452.061.639.077a1.546,1.546,0,0,0,.7-.06c.23-.064.655-.183.722-1.524a39.994,39.994,0,0,0-.367-4.952l-.015-.132c-.1-.826-.127-1.076.01-1.143.116-.057.251.067.57.38.772.755,1.881,1.884,2.787,2.971.434.521.832,1.045,1.182,1.507a17.124,17.124,0,0,0,1.2,1.479,2.556,2.556,0,0,0,1.526.848.914.914,0,0,0,.738-.2,1.684,1.684,0,0,0,.489-.671,1.81,1.81,0,0,0,.21-1.046c-.054-.337-.311-.628-1.192-1.354-.316-.26-.713-.575-1.134-.91-.789-.627-1.684-1.337-2.3-1.887a8.982,8.982,0,0,1-1.4-1.521l-.1-.139a6.666,6.666,0,0,0-.645-.723l-.039-.037c-.119-.11-.151-.14-.151-.2s.016-.1.4-.606c.332-.431,1.024-1.329,1.967-2.474.293-.356.61-.735.929-1.116.672-.8,1.367-1.636,1.855-2.269a5.324,5.324,0,0,0,1.088-1.829,1.383,1.383,0,0,0-.1-.9.751.751,0,0,0-.327-.392.909.909,0,0,0-.519-.083,1.485,1.485,0,0,0-.667.244,5.717,5.717,0,0,0-.641.554c-.222.205-.528.487-.971.886-.879.8-2.34,2.1-3.408,3.054l-.872.776c-1.1.973-1.115.979-1.156,1a.1.1,0,0,1-.1,0c-.052-.035-.08-.079-.095-.65-.019-.526-.022-1.506-.024-2.453v-.42a11.788,11.788,0,0,0-.206-2.512,1.171,1.171,0,0,0-.656-.829,2.581,2.581,0,0,0-.432-.144c-.086-.023-.176-.047-.266-.078a4.725,4.725,0,0,1-.691-.318c-.2-.107-.355-.185-.432-.215a3.534,3.534,0,0,0-.512.624l-.182.24c-.539.71-1.441,1.9-2.061,2.845-.453.7-.764,1.273-.971,1.654-.11.2-.189.349-.251.444-.05.077-.11.158-.193.138-.112-.026-.131-.176-.2-.734l-.041-.312a24.881,24.881,0,0,0-.722-3.65,7.423,7.423,0,0,0-1.138-2.292,1.584,1.584,0,0,0-.879-.745A3.3,3.3,0,0,0,724.661,185.322Z" transform="translate(-715.656 -185.171)" fill="#282828"/>
              </g>
            </g>
            <g id="Group_713" data-name="Group 713" transform="translate(33.846 11.699)">
              <g id="Group_712" data-name="Group 712">
                <path id="Path_1471" data-name="Path 1471" d="M757.784,221.963a.3.3,0,0,1-.185-.059c-.158-.119-.213-.411-.172-.917a33.123,33.123,0,0,1,1.082-4.88c.355-1.243.748-2.432,1.167-3.535.246-.649.3-.72.428-.766a.666.666,0,0,1,.508.065c.207.114.425.339.617,1.205.128.588.244,1.486.347,2.279.046.357.09.7.132.987.024.16.047.3.068.437a2.376,2.376,0,0,1,0,1.379,4.412,4.412,0,0,1-.97,1.2l-.034.033c-.27.272-.413.432-.594.634l-.167.186c-.215.24-.483.538-.719.771a5.835,5.835,0,0,1-.657.6,1.95,1.95,0,0,1-.6.321A.733.733,0,0,1,757.784,221.963Zm2.491-10.031a.466.466,0,0,0-.126.017c-.06.021-.1.057-.333.676-.418,1.1-.809,2.285-1.163,3.523a33.034,33.034,0,0,0-1.077,4.85h0c-.044.545.037.728.113.785s.184.02.292-.02a1.8,1.8,0,0,0,.557-.3,5.694,5.694,0,0,0,.64-.587c.234-.232.5-.528.715-.766l.167-.186c.183-.2.327-.365.6-.641l.034-.034a4.383,4.383,0,0,0,.937-1.152,2.252,2.252,0,0,0-.007-1.3c-.021-.132-.044-.278-.068-.439-.042-.29-.086-.631-.133-.989-.1-.79-.218-1.685-.345-2.266-.18-.809-.375-1.013-.542-1.105A.548.548,0,0,0,760.276,211.932Z" transform="translate(-757.414 -211.781)" fill="#282828"/>
              </g>
            </g>
            <g id="Group_715" data-name="Group 715" transform="translate(79.621 13.473)">
              <g id="Group_714" data-name="Group 714">
                <path id="Path_1472" data-name="Path 1472" d="M1060.836,230.8h-.021a.178.178,0,0,1-.143-.123h0a3.926,3.926,0,0,1,.248-1.9,21.573,21.573,0,0,1,1.258-3.111,6.108,6.108,0,0,1,1.055-1.576,1.669,1.669,0,0,1,.691-.478.708.708,0,0,1,.635.008c.111.067.362.287.242.857a8.071,8.071,0,0,1-.662,1.538l-.045.088c-.312.606-.557,1.056-.8,1.46-.27.43-.562.834-.837,1.206-.264.35-.458.621-.62.847-.063.09-.124.182-.185.275-.11.165-.223.336-.348.5C1061.094,230.677,1060.954,230.8,1060.836,230.8Zm-.024-.183c.008.02.017.031.022.031s.105-.016.354-.351c.123-.163.235-.332.343-.5.062-.093.123-.186.187-.278.163-.228.358-.5.622-.851.273-.369.562-.77.829-1.194.237-.4.481-.848.791-1.45l.044-.088a7.985,7.985,0,0,0,.649-1.5c.1-.457-.068-.633-.174-.7a.551.551,0,0,0-.5.006,1.476,1.476,0,0,0-.633.44,5.977,5.977,0,0,0-1.029,1.54,21.391,21.391,0,0,0-1.248,3.086A3.905,3.905,0,0,0,1060.812,230.617Z" transform="translate(-1060.629 -223.532)" fill="#282828"/>
              </g>
            </g>
            <g id="Group_717" data-name="Group 717" transform="translate(88.743 11.976)">
              <g id="Group_716" data-name="Group 716">
                <path id="Path_1473" data-name="Path 1473" d="M1124.189,233.93a2.474,2.474,0,0,1-.906-.168,3.987,3.987,0,0,1-1.6-1.313,3.118,3.118,0,0,1-.612-1.26.965.965,0,0,1,.2-.844,2.208,2.208,0,0,1,1.287-.6c.285-.071.64-.145,1.016-.224.655-.136,1.4-.292,2.022-.481a7.562,7.562,0,0,0,2.168-1.053,3.76,3.76,0,0,0,.963-.921c.177-.258.28-.481-.014-1.023-.149-.271-.4-.62-.71-1.061-.33-.465-.74-1.044-1.2-1.758-.864-1.349-1.914-3.2-2.642-4.514a13.045,13.045,0,0,1-1.057-2.129,1.853,1.853,0,0,1-.038-1.106,2.346,2.346,0,0,1,.5-.939,1.957,1.957,0,0,1,.839-.536,5.814,5.814,0,0,1,1.424-.318,11.157,11.157,0,0,1,2.414,0,7.15,7.15,0,0,1,2.33.67,2.623,2.623,0,0,1,1.2,1.151,1.826,1.826,0,0,1,.093,1.391,3.1,3.1,0,0,1-.758,1.229.743.743,0,0,1-.751.225.8.8,0,0,1-.469-.455c-.03-.058-.06-.122-.092-.192a3.73,3.73,0,0,0-.433-.752,2.776,2.776,0,0,0-1.215-.932,1.6,1.6,0,0,0-1.26.237h0a2.2,2.2,0,0,0-.751.647c-.085.136-.06.187.381.784.513.672,1.3,1.71,2.185,2.954,1.03,1.415,2.02,2.874,2.583,3.809a4.279,4.279,0,0,1,.818,2.21,3.834,3.834,0,0,1-.68,2.092,12.622,12.622,0,0,1-2.36,2.606,14.936,14.936,0,0,1-3.295,2.189A3.973,3.973,0,0,1,1124.189,233.93Zm2.9-20.166a11.863,11.863,0,0,0-1.234.065,5.67,5.67,0,0,0-1.387.309,1.822,1.822,0,0,0-.78.5,2.224,2.224,0,0,0-.465.878,1.689,1.689,0,0,0,.037,1.021,13.019,13.019,0,0,0,1.045,2.1c.727,1.313,1.775,3.161,2.637,4.506.454.711.864,1.288,1.192,1.752a12.9,12.9,0,0,1,.719,1.076.958.958,0,0,1,.006,1.181,3.9,3.9,0,0,1-1,.959,7.715,7.715,0,0,1-2.211,1.074c-.632.192-1.377.348-2.035.485-.375.078-.728.152-1.011.222-.817.2-1.063.384-1.208.555a.815.815,0,0,0-.17.721,2.966,2.966,0,0,0,.584,1.2,3.834,3.834,0,0,0,1.531,1.263,3.014,3.014,0,0,0,2.382-.217,14.77,14.77,0,0,0,3.257-2.166,12.471,12.471,0,0,0,2.331-2.572,3.69,3.69,0,0,0,.656-2.01,4.157,4.157,0,0,0-.8-2.133c-.56-.931-1.547-2.387-2.576-3.8-.886-1.243-1.67-2.28-2.183-2.952-.443-.6-.535-.722-.39-.953a2.321,2.321,0,0,1,.8-.7,1.745,1.745,0,0,1,1.378-.251,2.885,2.885,0,0,1,1.292.985,3.871,3.871,0,0,1,.45.781c.031.068.06.13.089.187a.666.666,0,0,0,.38.38.58.58,0,0,0,.6-.193,2.924,2.924,0,0,0,.716-1.163,1.68,1.68,0,0,0-.084-1.28,2.478,2.478,0,0,0-1.138-1.083,6.988,6.988,0,0,0-2.278-.654A9.608,9.608,0,0,0,1127.087,213.764Z" transform="translate(-1121.054 -213.613)" fill="#282828"/>
              </g>
            </g>
            <g id="Group_719" data-name="Group 719" transform="translate(56.227 9.859)">
              <g id="Group_718" data-name="Group 718">
                <path id="Path_1474" data-name="Path 1474" d="M916.02,222.027a4.03,4.03,0,0,1-1.7-.407,11.614,11.614,0,0,1-1.449-.833c-.136-.087-.268-.172-.394-.25-.518-.317-.928-.519-1.173-.64l-.023-.011c-.263-.13-.3-.175-.432-.656-.118-.465-.314-1.364-.382-1.909a4.876,4.876,0,0,1-.048-.586.6.6,0,0,0-.029-.229.413.413,0,0,0-.186-.15,1.3,1.3,0,0,1-.138-.085.86.86,0,0,1-.289-.408.943.943,0,0,1-.073-.515,1.251,1.251,0,0,1,.183-.423l.013-.022c.042-.089.084-.178-.166-2.7a11.73,11.73,0,0,1-.77.939,2.153,2.153,0,0,1-1.135.773,2.338,2.338,0,0,1-1.245-.134c-.334-.144-.4-.344-.5-.878s-.252-1.453-.324-2a4.024,4.024,0,0,1-.086-.813c.007-.154.04-.322.353-.509.055-.032.118-.064.2-.106a23.234,23.234,0,0,0,2.743-1.715c-.25-2.8-.265-2.939-.265-2.943l0-.025.013-.022c.007-.011.019-.031.126-.1l.067-.041c.114-.069.287-.173.482-.317.234-.169.5-.4.71-.582l.025-.021a1.894,1.894,0,0,1,.477-.343.612.612,0,0,1,.5.01c.142.083.2.243.266.714.071.49.154,1.374.181,1.665.008.122.012.21.015.274.07-.051.178-.128.344-.244l.048-.033c.473-.327,1.354-.937,2.455-1.569a19.21,19.21,0,0,1,3.615-1.647,4.327,4.327,0,0,1,2.307-.149c.411.12.571.309.52.611-.031.271-.237.549-1.16,1.082-.246.142-.538.3-.877.481a24.812,24.812,0,0,0-3.249,1.977,16.19,16.19,0,0,0-3.052,3.119c-.539.7-.539.815-.539.945,0,.146,0,.327.022.8.013.322.036.78.055,1.165l.024.478c0,.091.009.181.017.229a2.645,2.645,0,0,0,.24-.224l.187-.187c.41-.411,1.172-1.176,2.712-2.595,1.779-1.65,4.637-4.212,6.241-5.594a13.238,13.238,0,0,1,2.137-1.671c.135-.077.234-.138.305-.181l.1-.059c.086-.048.123-.051.367-.065l.214-.01c.284-.013.685-.031,1.057-.052l.286-.017c.355-.021.663-.04.846-.052.263-.011.327.014.365.29.011.092.025.218.044.4.03.281.073.691.143,1.3.045.381.1.84.155,1.266.059.475.1.84.131,1.072,1.857-3.919,2.412-4.753,2.9-5.368a4.192,4.192,0,0,1,1.655-1.374,7,7,0,0,1,2.154-.541,2.963,2.963,0,0,1,1.766.253,2,2,0,0,1,.924,1.6,8.357,8.357,0,0,1-.277,3.053,11.707,11.707,0,0,1-1.464,3.045,30.883,30.883,0,0,1-2.346,3.371,9.715,9.715,0,0,1-1.9,1.75c-.188.131-.343.233-.469.316a3.042,3.042,0,0,0-.368.263c-.111.1-.1.17-.078.235s.05.142.928.369a44.211,44.211,0,0,0,4.388.827c.785.107,1.6.2,2.323.275.974.107,1.814.2,2.356.305.96.185,1,.422.962.712a2.2,2.2,0,0,1-.223.707,4.3,4.3,0,0,1-.508.732c-.173.189-.276.173-.941.072-.628-.1-1.779-.281-3.371-.537l-1.073-.174c-1.716-.28-3.656-.6-5.144-.807.385,3.308.385,3.385.385,3.482a.861.861,0,0,1-.056.348.945.945,0,0,1-.348.405,1.307,1.307,0,0,1-.71.19,4.3,4.3,0,0,1-1.162-.119,3.55,3.55,0,0,1-1.109-.408,1.4,1.4,0,0,1-.537-.564c-.1-.192-.141-.355-.135-1.311,0-.394.012-.93.023-1.5.016-.818.034-1.744.028-2.45a12.385,12.385,0,0,0-.35-3.1c-.208-.94-.575-2.422-1.06-4.286-.115-.436-.2-.751-.287-.782-.066-.024-.232.1-.441.251-1.02.741-2.09,1.608-3.182,2.575-.608.536-1.256,1.137-1.943,1.773-.958.887-1.948,1.8-2.806,2.52a24.045,24.045,0,0,1-3.018,2.174l-.042.026c-.486.305-.484.314-.472.37.008.034.022.083.041.154.034.124.085.314.161.611a6.943,6.943,0,0,0,.539,1.613,1.148,1.148,0,0,0,.768.558,1.672,1.672,0,0,0,.854.026,6.855,6.855,0,0,0,2.179-.638,12,12,0,0,0,1.54-.992c.313-.224.637-.455.963-.663a6.966,6.966,0,0,1,2.343-1.049,1.031,1.031,0,0,1,1.036.348c.146.193.146.321.107.669-.038.312-.118.9-.181,1.237s-.116.42-.467.773a17.115,17.115,0,0,1-1.845,1.6,20,20,0,0,1-2.561,1.57,4.525,4.525,0,0,1-1.872.622C916.135,222.026,916.077,222.027,916.02,222.027Zm-6.179-10.3.025.252c.278,2.765.238,2.851.171,2.993l-.016.029a1.13,1.13,0,0,0-.164.372.8.8,0,0,0,.065.435.719.719,0,0,0,.238.341,1.158,1.158,0,0,0,.121.074.516.516,0,0,1,.248.216.654.654,0,0,1,.044.29,4.759,4.759,0,0,0,.047.571c.066.534.265,1.444.378,1.891s.135.452.353.559l.023.012c.247.122.661.326,1.185.647.127.079.26.164.4.252a11.5,11.5,0,0,0,1.431.823,3.794,3.794,0,0,0,1.8.389,4.4,4.4,0,0,0,1.812-.606,19.792,19.792,0,0,0,2.541-1.557,16.978,16.978,0,0,0,1.827-1.588c.34-.343.372-.4.425-.694s.134-.854.18-1.227c.037-.333.035-.412-.077-.559a.878.878,0,0,0-.894-.291,6.925,6.925,0,0,0-2.284,1.027c-.323.205-.645.436-.956.658a12.338,12.338,0,0,1-1.561,1,7.016,7.016,0,0,1-2.227.653,1.828,1.828,0,0,1-.913-.031,1.3,1.3,0,0,1-.857-.626,6.932,6.932,0,0,1-.556-1.654c-.076-.3-.127-.484-.16-.609-.019-.072-.033-.123-.042-.16-.035-.17.019-.2.539-.532l.042-.026a23.86,23.86,0,0,0,3-2.161c.855-.713,1.844-1.629,2.8-2.515.657-.609,1.337-1.238,1.946-1.776,1.1-.971,2.169-1.84,3.193-2.584.282-.208.438-.322.58-.272.164.058.228.3.383.886.485,1.866.852,3.35,1.061,4.292a12.5,12.5,0,0,1,.353,3.134c.006.707-.012,1.635-.028,2.453-.011.566-.021,1.1-.023,1.494-.006.963.036,1.087.118,1.239a1.255,1.255,0,0,0,.483.506,3.453,3.453,0,0,0,1.061.389,4.165,4.165,0,0,0,1.123.116,1.168,1.168,0,0,0,.633-.164.788.788,0,0,0,.292-.337.72.72,0,0,0,.045-.291c0-.086,0-.167-.4-3.562l-.011-.1.1.014c1.5.212,3.49.536,5.244.821l1.073.174c1.592.256,2.742.441,3.37.537.688.105.7.1.807-.024a4.186,4.186,0,0,0,.486-.7,2.025,2.025,0,0,0,.207-.659c.026-.182.054-.369-.842-.542-.536-.105-1.373-.2-2.344-.3-.722-.079-1.54-.169-2.327-.276a44.351,44.351,0,0,1-4.4-.831c-.892-.23-.985-.33-1.034-.466a.343.343,0,0,1,.118-.394,3.067,3.067,0,0,1,.388-.279c.125-.082.279-.183.465-.313a9.565,9.565,0,0,0,1.875-1.724,30.712,30.712,0,0,0,2.332-3.352,11.574,11.574,0,0,0,1.448-3.007,8.2,8.2,0,0,0,.273-2.993,1.858,1.858,0,0,0-.849-1.489,2.823,2.823,0,0,0-1.678-.234,6.846,6.846,0,0,0-2.1.528,4.053,4.053,0,0,0-1.6,1.329c-.489.62-1.052,1.468-3,5.585l-.144.3v-.337c0-.067-.08-.71-.157-1.332-.053-.426-.11-.885-.155-1.267-.07-.606-.114-1.016-.144-1.3-.019-.177-.032-.3-.043-.393-.023-.166-.023-.166-.207-.158s-.491.031-.846.052l-.286.017c-.373.021-.775.039-1.059.052l-.212.01c-.237.014-.248.016-.3.046l-.1.057c-.072.044-.172.1-.31.183a13.136,13.136,0,0,0-2.112,1.654c-1.6,1.381-4.458,3.941-6.236,5.591-1.538,1.416-2.3,2.18-2.707,2.59l-.187.187c-.221.223-.315.311-.409.276s-.094-.141-.106-.375l-.024-.481c-.019-.386-.043-.844-.056-1.166-.022-.479-.022-.663-.022-.81,0-.165,0-.295.569-1.037a16.334,16.334,0,0,1,3.082-3.148,24.93,24.93,0,0,1,3.268-1.989c.338-.181.63-.338.873-.478.917-.529,1.064-.78,1.086-.972.025-.151.016-.319-.411-.444a4.182,4.182,0,0,0-2.224.149,19.075,19.075,0,0,0-3.583,1.633c-1.1.628-1.972,1.236-2.444,1.562l-.048.033c-.4.279-.448.321-.453.325l-.052-.055-.074-.012c0-.005,0-.061-.017-.4-.027-.287-.11-1.168-.18-1.656-.062-.449-.115-.559-.192-.6a.467.467,0,0,0-.369,0,1.829,1.829,0,0,0-.434.317l-.024.021c-.21.184-.482.417-.72.589-.2.147-.376.254-.493.324l-.066.04c-.03.018-.049.032-.062.041.012.13.062.674.265,2.949l0,.044-.036.025a23.538,23.538,0,0,1-2.8,1.75c-.078.04-.138.071-.19.1-.269.161-.274.287-.279.388a4,4,0,0,0,.085.783c.072.541.222,1.469.322,1.988.107.553.165.66.415.768a2.172,2.172,0,0,0,1.154.125,2.042,2.042,0,0,0,1.055-.727,9.054,9.054,0,0,0,.869-1.092Z" transform="translate(-905.671 -199.594)" fill="#282828"/>
              </g>
            </g>
          </g>
        </g>
      </g>
      <g id="Group_735" data-name="Group 735" transform="translate(102.293 5.652)">
        <g id="Group_725" data-name="Group 725">
          <g id="Group_724" data-name="Group 724">
            <g id="Group_723" data-name="Group 723">
              <path id="Path_1475" data-name="Path 1475" d="M1211.062,176.77a4.774,4.774,0,0,1,1.681-1.39,6.306,6.306,0,0,1,2.108-.658,3.751,3.751,0,0,1,2.032.133c.531.256.82.791.975,2.117s.168,3.45.44,5.862.773,5.115,1.177,6.982a30.455,30.455,0,0,0,.867,3.393c.175.494.244.466.368.25a10.145,10.145,0,0,0,.8-2.8c.478-2.174,1.231-6.134,1.893-8.821a41.529,41.529,0,0,1,1.656-5.289c.431-1.19.741-2.152.988-2.877a2.866,2.866,0,0,1,.857-1.5,3.141,3.141,0,0,1,1.675-.437,4.7,4.7,0,0,1,1.693.2c.383.152.494.393.431.94a20.457,20.457,0,0,1-1.044,3.539c-.741,2.136-1.975,5.565-3.279,9.176s-2.674,7.406-3.529,9.527-1.212,2.57-1.516,2.861a1.141,1.141,0,0,1-.946.4,3.5,3.5,0,0,1-1.447-.431,2.248,2.248,0,0,1-1.032-1.19,13.331,13.331,0,0,1-.522-2.292c-.161-.908-.351-1.924-.661-3.27s-.725-3.013-1.193-4.507a35.208,35.208,0,0,0-1.564-4.023c-.557-1.206-1.136-2.3-1.523-3a3.851,3.851,0,0,0-.848-1.187c-.244-.177-.516-.224-.671-.478A1.205,1.205,0,0,1,1211.062,176.77Z" transform="translate(-1210.814 -171.723)" fill="#282828"/>
            </g>
          </g>
        </g>
        <g id="Group_728" data-name="Group 728" transform="translate(48.75 7.382)">
          <g id="Group_727" data-name="Group 727">
            <g id="Group_726" data-name="Group 726">
              <path id="Path_1476" data-name="Path 1476" d="M1539.408,233.459c-.418-1.873-1.288-5.2-1.956-7.438a32.489,32.489,0,0,0-1.424-4.039,5,5,0,0,0-.51-.987.836.836,0,0,0-.415-.339,1.49,1.49,0,0,0-.722.026.885.885,0,0,0-.579.361c-.108.183-.086.44.063,3.238s.443,8.137.614,10.989a19.254,19.254,0,0,0,.3,3.469.9.9,0,0,0,.614.639,10.122,10.122,0,0,0,1.434.4,2.156,2.156,0,0,0,.674.1,2.1,2.1,0,0,0,.924-.389,16.113,16.113,0,0,0,2.013-1.469c.734-.617,1.424-1.31,1.962-1.807s.924-.8,1.237-1.105a1.632,1.632,0,0,0,.6-.955,2.04,2.04,0,0,0-.358-1.2,1.255,1.255,0,0,0-.877-.7,1.462,1.462,0,0,0-1.038.642,13.9,13.9,0,0,0-.981,1.444,5.61,5.61,0,0,1-.994,1.3C1539.794,235.75,1539.829,235.333,1539.408,233.459Z" transform="translate(-1533.735 -220.622)" fill="#282828"/>
            </g>
          </g>
        </g>
        <g id="Group_731" data-name="Group 731" transform="translate(58.4 4.716)">
          <g id="Group_730" data-name="Group 730">
            <g id="Group_729" data-name="Group 729">
              <path id="Path_1477" data-name="Path 1477" d="M1603.455,205.387c5.659-2.323,5.751-2.412,5.913-2.367a.93.93,0,0,1,.547.661,5.075,5.075,0,0,1,.2,1.589,1.386,1.386,0,0,1-.168.792c-.079.12-.155.139-.652.161a12.066,12.066,0,0,0-2.5.294,17.308,17.308,0,0,0-3.079,1.1c-.713.335-.874.516-.953.715a7.029,7.029,0,0,0-.165,1.545c-.095,1.133-.266,3.181-.361,4.213s-.086,1.051-.047,1.07.12.041,1.484-.959,4.039-3.032,5.957-4.529a52.553,52.553,0,0,0,4.172-3.485c1.051-1.013,1.962-2.063,2.544-2.592s.811-.525,1.083-.525.564,0,.829-.019.506-.06.677-.079.266-.019.028,1.44-.81,4.377-1,6.422a12.477,12.477,0,0,0,.156,3.921c.152.7.25.944.484.855a3.554,3.554,0,0,0,1.044-1.063,16.6,16.6,0,0,0,1.58-2.523c.677-1.269,1.547-3.114,2.117-4.307s.827-1.728,1.089-2.184.547-.832.785-1.162a1.276,1.276,0,0,1,.9-.668,6.882,6.882,0,0,1,1.646.181c.478.082.719.082.9.13s.3.149.149,2.165-.57,5.947-1.073,10.1-1.1,8.517-1.529,10.91-.687,2.811-1.256,3.127a3.825,3.825,0,0,1-2.089.459,2.206,2.206,0,0,1-1.377-.766c-.279-.307-.4-.545-.2-1.788a49.7,49.7,0,0,1,1.266-5.352c.557-1.864,1.158-3.352,1.661-4.7a23.328,23.328,0,0,0,1.216-4.1,38.472,38.472,0,0,0,.547-4.365c.057-.946,0-.991-.1-.96s-.238.13-.763,1.212-1.443,3.146-2.4,4.786a14.991,14.991,0,0,1-2.772,3.545,2.9,2.9,0,0,1-1.985.883,4.917,4.917,0,0,1-1.684-.307c-.417-.162-.6-.32-.757-1.444a34.531,34.531,0,0,1-.259-5,40.089,40.089,0,0,1,.352-4.121c.088-.814.044-.934-.282-.725s-.949.744-3.057,2.513-5.726,4.76-7.578,6.305-1.924,1.617-1.924,1.826.079.545.174,1.181.222,1.57.329,2.1.212.674.782.3,1.589-1.272,2.84-2.342,2.725-2.323,3.719-2.991,1.513-.743,1.956-.652a.988.988,0,0,1,.877.734c.047.386-.231.9-.8,1.715a19.333,19.333,0,0,1-2.472,2.928,15.136,15.136,0,0,1-3.434,2.472,10.823,10.823,0,0,1-2.776.965,2.052,2.052,0,0,1-1.209.019,4.13,4.13,0,0,1-1.181-.623c-.377-.3-.677-.678-.8-1.969-.082-.8-.107-1.953-.111-2.725-.693.408-.722.4-.741.307s-.019-.25-.083-.741-.168-1.31-.228-1.747-.07-.487-.051-.547a.519.519,0,0,1,.146-.193c.067-.066.149-.124.212-.18a.345.345,0,0,0,.139-.222,8.313,8.313,0,0,0,.067-1.393c.025-1.1.051-3.114-.01-4.114s-.205-.965-.405-.911a1.965,1.965,0,0,1-.737.114,2.194,2.194,0,0,1-.817-.3c-.24-.136-.421-.272-.468-.424s.022-.314.2-.516a5,5,0,0,1,.823-.734c.383-.281.871-.6,1.19-.807s.475-.314.62-.408.282-.178.352-.231.066-.067.041-.266-.076-.57-.111-.876a6.5,6.5,0,0,1-.044-.738.656.656,0,0,1,.231-.481,2.581,2.581,0,0,1,.852-.487,6.5,6.5,0,0,1,1.225-.313c.316-.044.459-.006.522.117S1603.652,203.574,1603.455,205.387Z" transform="translate(-1597.659 -202.962)" fill="#282828"/>
            </g>
          </g>
        </g>
        <g id="Group_734" data-name="Group 734" transform="translate(18.088 4.494)">
          <g id="Group_733" data-name="Group 733">
            <g id="Group_732" data-name="Group 732">
              <path id="Path_1478" data-name="Path 1478" d="M1359.536,216.353a7.105,7.105,0,0,0-1.353-.947c-.423-.24-.654-.323-.921-.21s-.6.415-1.086,1.144-1.155,1.864-1.636,2.538a2.492,2.492,0,0,1-1.037.99,1.022,1.022,0,0,1-.6.075c-.16-.02-.291-.066-.632-2.763s-.912-8.033-1.235-10.83-.4-3.056-.584-3.3a1.539,1.539,0,0,0-.856-.554,1.582,1.582,0,0,0-1.122.142c-.284.189-.38.512-1.4,1.629s-2.968,3.03-4.111,4.133a9.672,9.672,0,0,1-1.623,1.44c-.626-3.622-1.114-4.681-1.57-5.574a13.378,13.378,0,0,0-1.858-2.779c-1.446,0-1.883.439-2.1.921a6.763,6.763,0,0,0-.322,1.858,29.778,29.778,0,0,1-.706,3.564c-.4,1.558-.974,3.519-1.665,5.531s-1.5,4.067-1.955,5.29a4.6,4.6,0,0,0-.524,1.961,1.49,1.49,0,0,0,.58.931,1.442,1.442,0,0,0,1.2.349,2.065,2.065,0,0,0,1.093-.823c.2-.312.151-.536.162-1.22a25.636,25.636,0,0,1,.177-2.63,1.963,1.963,0,0,1,1.117-1.769,16.834,16.834,0,0,1,3.368-1.268c.909-.248,1.14-.195,1.282-.121s.207.168.231.48a10.3,10.3,0,0,1-.1,1.858c-.115,1.013-.326,2.511-.326,3.542a3.76,3.76,0,0,0,.4,1.935c.181.313.343.359.956.414a11.293,11.293,0,0,0,2.293.029c.619-.1.8-.353.752-1.149a22.9,22.9,0,0,0-.655-3.625c-.361-1.487-.836-3.128-1.043-3.988s-.192-.936-.149-1.017.092-.163,1.181-1.2,3.238-3.028,4.324-3.984,1.117-.877,1.1-.639-.057.642-.166,2.9-.293,6.378-.278,8.786c0,2.415.2,3.125.456,3.622a2.443,2.443,0,0,0,1.058,1.07,3.553,3.553,0,0,0,1.837.54,5.77,5.77,0,0,0,2.432-.829,15.06,15.06,0,0,0,3.042-2.08,14.542,14.542,0,0,0,2.113-2.5,4.343,4.343,0,0,0,.64-1.131A.61.61,0,0,0,1359.536,216.353Zm-20.238-4.9c-.041.254-.124.275-.722.491s-1.7.63-2.287.823-.652.171-.463-.506.634-2.02.9-3.244.332-2.334.489-2.859.4-.477.764.3a22.238,22.238,0,0,1,1.1,3.265A4.872,4.872,0,0,1,1339.3,211.45Z" transform="translate(-1330.63 -201.489)" fill="#282828"/>
            </g>
          </g>
        </g>
      </g>
    </g>
  </g>
</svg>
