<svg id="Group_184" data-name="Group 184" xmlns="http://www.w3.org/2000/svg" width="339.33" height="108.258" viewBox="0 0 339.33 108.258">
  <path id="Path_767" data-name="Path 767" d="M881.635,203.873h-6.362V138.1h6.281v7.392c1.233-1.366,2.123-2.543,3.2-3.513,10.361-9.331,27.861-5.468,33.832,7.441,4.41,9.534,2.116,21.5-5.369,28.015-8.373,7.289-22.011,7.02-29.376-.592-.7-.724-1.32-1.527-2.205-2.56Zm15.9-61.991a45.523,45.523,0,0,0-6.773,1.841c-11.754,5.176-13.546,22.591-3.191,30.271,6.979,5.176,17.176,4.211,22.45-2.26,3.629-4.453,4.467-9.686,3.732-15.261C912.647,148.062,906.084,142.259,897.539,141.881Z" transform="translate(-875.272 -95.615)" fill="#fff"/>
  <path id="Path_768" data-name="Path 768" d="M1276.52,169.813l4.668,3.669a22.308,22.308,0,0,1-11.034,8.053c-12.643,3.948-26.183-1.82-29.663-15.986-2.8-11.39,2.757-22.924,13.11-27.1,7.685-3.1,18.808-1.913,24.674,5.8,3.743,4.923,4.767,10.569,4.426,16.578a3.283,3.283,0,0,1-.239.7h-35.7c-.814,4.969,3.33,11.5,8.909,14.227C1262.687,179.2,1269.651,177.24,1276.52,169.813Zm-.45-13.441c.674-7.507-5.56-13.893-13.708-14.12-8.122-.227-15.855,6.77-15.542,14.12Z" transform="translate(-1005.164 -95.629)" fill="#fff"/>
  <path id="Path_769" data-name="Path 769" d="M1120.139,154.635c.819-9.68-5.39-13.061-13.545-12.267a18.552,18.552,0,0,0-10.905,5l-3.558-4.2a19.143,19.143,0,0,1,6.744-4.33,25.42,25.42,0,0,1,17.055-.942,13.9,13.9,0,0,1,10.311,13.609c.107,6.064-.008,12.131.092,18.2.06,3.589.348,7.175.529,10.762.017.348,0,.7,0,1.129h-5.622c-.233-2.2-.465-4.38-.727-6.858-.423.512-.752.9-1.072,1.3-5.493,6.822-16.186,8.887-23.581,4.517-4.552-2.69-6.56-6.74-6.33-11.987.223-5.107,2.818-8.562,7.345-10.674a32.363,32.363,0,0,1,11.654-2.671C1112.367,154.958,1116.21,154.826,1120.139,154.635Zm-.111,4.939c-4.362.359-8.684.512-12.935,1.141a25.936,25.936,0,0,0-7.107,2.334c-2.884,1.359-4.117,3.879-3.812,7.1a7.047,7.047,0,0,0,4.886,6.332,14.275,14.275,0,0,0,12.489-.865C1118.567,172.77,1121.145,166.51,1120.029,159.574Z" transform="translate(-951.62 -95.621)" fill="#fff"/>
  <path id="Path_770" data-name="Path 770" d="M999.265,181.585h-5.647c-.232-2.207-.465-4.419-.708-6.727-1.217,1.291-2.3,2.634-3.579,3.764-5.507,4.874-15.652,5.578-21.794,1.5-4.308-2.859-5.962-7-5.6-12.073.342-4.785,2.891-8.022,7.081-10.05a31.547,31.547,0,0,1,11.779-2.777c3.639-.246,7.289-.326,10.933-.484.247-.011.492-.058.707-.084,1.33-6.718-2.8-11.846-9.942-12.352a18.693,18.693,0,0,0-14.436,5.074l-3.546-4.2a19.874,19.874,0,0,1,8.459-4.974,25.214,25.214,0,0,1,15.317-.313,14.1,14.1,0,0,1,10.36,14.057c.04,7.451,0,14.9.08,22.352C998.758,176.7,999.074,179.1,999.265,181.585Zm-6.717-22.015c-4.465.364-8.833.5-13.121,1.156a27.267,27.267,0,0,0-7.353,2.508,6.275,6.275,0,0,0-3.593,6.312,7.3,7.3,0,0,0,4.225,6.653,14.484,14.484,0,0,0,15.637-2.4C992.248,169.976,992.939,165.181,992.548,159.57Z" transform="translate(-906.139 -95.621)" fill="#fff"/>
  <path id="Path_771" data-name="Path 771" d="M1328.01,97.052h6.281v70.306h-6.281Z" transform="translate(-1036.609 -81.442)" fill="#fff"/>
  <path id="Path_772" data-name="Path 772" d="M1207.235,167.4h-6.411q6.2-35.2,12.388-70.356h6.41Q1213.423,132.249,1207.235,167.4Z" transform="translate(-991.285 -81.439)" fill="#fff"/>
  <path id="Path_773" data-name="Path 773" d="M1170.767,167.408h-6.414q6.21-35.265,12.4-70.392h6.41Z" transform="translate(-978.288 -81.429)" fill="#fff"/>
  <path id="Path_774" data-name="Path 774" d="M1050.562,181.713c-1.963,0-3.75.037-5.533-.038-.286-.012-.662-.48-.794-.816a3.541,3.541,0,0,1-.04-1.221q0-17.032,0-34.063v-7.448h5.8l.436,7.177c4.343-7.064,10.459-9.307,18.277-7.957-.293,2.094-.566,4.046-.794,5.678a51.13,51.13,0,0,0-5.953.037c-5.785.7-9.631,4.568-10.784,10.841a39,39,0,0,0-.584,6.579c-.075,6.473-.027,12.947-.027,19.421Z" transform="translate(-935.457 -95.668)" fill="#fff"/>
  <path id="Path_775" data-name="Path 775" d="M1377.427,87.387c-3.3-2.188-4.6-5.392-3.494-9.02a8.026,8.026,0,0,1,7.993-5.568c4.077-.021,7.271,2.121,8.313,5.576,1.092,3.619-.207,6.808-3.848,9.247a8.232,8.232,0,0,1,4.889,5.063c2.137,6.652-3.593,12.733-10.825,11.5-6.785-1.154-10.175-7.482-6.805-13C1374.563,89.689,1376.173,88.618,1377.427,87.387Zm4.679,14.2c3.839-.006,6.479-2.571,6.469-6.283s-2.692-6.258-6.532-6.236-6.511,2.624-6.492,6.3S1378.257,101.594,1382.105,101.587Zm.006-15.319a5.336,5.336,0,0,0,5.436-5.322,5.462,5.462,0,1,0-10.92.067A5.3,5.3,0,0,0,1382.112,86.268Z" transform="translate(-1052.403 -72.799)" fill="#fff"/>
  <path id="Path_776" data-name="Path 776" d="M1361.109,103.8h-3.064V77.85l-5.326,4.489-1.949-2.16c2.544-2.074,4.975-4.18,7.563-6.073.617-.451,1.756-.189,2.775-.263Z" transform="translate(-1044.72 -73.168)" fill="#fff"/>
</svg>
