<svg id="Group_161" data-name="Group 161" xmlns="http://www.w3.org/2000/svg" width="291.026" height="67.662" viewBox="0 0 291.026 67.662">
  <path id="Path_629" data-name="Path 629" d="M361.448,291.156h-5.887a5.866,5.866,0,0,1-.311-.649c-.693-2.013-1.414-4.016-2.057-6.045-1.079-3.41-2.107-6.836-3.16-10.252-.11-.357-.248-.705-.373-1.057l-.279.059c0,2.985.043,5.971-.012,8.954-.055,2.952.257,5.906-.059,8.984a45.329,45.329,0,0,1-5.142.027c-.236-.792-.322-27.754-.084-29.649,2.2-.027,4.422-.015,6.769,0,1.612,5.083,3.212,10.129,4.812,15.175l.21-.005c.015-.68.037-1.36.044-2.04.008-.724,0-1.449,0-2.173v-4.344c0-.724.008-1.449,0-2.173s-.057-1.447-.05-2.169.062-1.431.1-2.126a20.373,20.373,0,0,1,5.481-.01Z" transform="translate(-271.392 -224.043)" fill="#fff"/>
  <path id="Path_630" data-name="Path 630" d="M529.713,273.238V290.98a18.786,18.786,0,0,1-5.431.047V289.9c0-3.512.064-7.026-.021-10.536-.067-2.741.081-5.477.032-8.216s-.011-5.5-.011-8.254v-1.327h6.764q2.438,7.673,4.884,15.377l.272-.042c.094-5.084-.066-10.174.05-15.346l4.284-.134V261.3l1.137.341v29.488c-1.045.111-2.012.048-2.972.059s-1.948,0-2.961,0c-.122-.262-.244-.477-.326-.707-.509-1.424-1.042-2.841-1.5-4.281-.481-1.511-.858-3.055-1.331-4.569-.841-2.691-1.72-5.371-2.583-8.055-.039-.122-.081-.244-.122-.367Z" transform="translate(-288.454 -224.027)" fill="#fff"/>
  <path id="Path_631" data-name="Path 631" d="M452.818,276.162c0-2.389.009-4.779,0-7.167a8.211,8.211,0,0,1,5.751-7.517,12.254,12.254,0,0,1,7.038.1,7.043,7.043,0,0,1,5.194,6.182,19.974,19.974,0,0,1,.215,3.008c.024,3.8.041,7.6-.009,11.406a22.725,22.725,0,0,1-.4,3.435,8.867,8.867,0,0,1-1.43,3.257,5.331,5.331,0,0,1-2.728,1.881,11.628,11.628,0,0,1-9.081-.008,6.77,6.77,0,0,1-4.293-5.9c-.125-1.147-.173-2.305-.194-3.459-.032-1.737-.008-3.476-.008-5.214ZM464.642,272l-.078,0a21.223,21.223,0,0,0-.023-2.5,11.189,11.189,0,0,0-.575-2.286,1.517,1.517,0,0,0-1.228-.971c-1.406-.24-2.827-.1-3.242,1.959a5.01,5.01,0,0,0-.163.957c-.015,3.439-.031,6.876,0,10.314.005.635.055,1.259.023,1.9a14.873,14.873,0,0,0,.216,3.335,2.178,2.178,0,0,0,2.239,1.839,2.231,2.231,0,0,0,2.4-1.622,6.62,6.62,0,0,0,.336-1.908c.041-2.1.025-4.2.008-6.3,0-.462-.165-.925-.147-1.384C464.454,274.223,464.56,273.111,464.642,272Z" transform="translate(-281.695 -223.999)" fill="#fff"/>
  <path id="Path_632" data-name="Path 632" d="M518.631,291.151h-6.543c-1.088-4.1-2.168-8.166-3.255-12.259h-1.281c-.047,4.091,0,8.128-.03,12.24h-6.194c-.019-.4-.052-.789-.053-1.175,0-2.533.057-5.069-.022-7.6-.063-2.051.047-4.1.024-6.145-.024-2.063-.005-4.127-.005-6.19s.015-4.126-.008-6.189c-.007-.644-.124-1.285-.163-1.929a1.013,1.013,0,0,1,.1-.388c2.893,0,5.7-.044,8.513.021a23.149,23.149,0,0,1,3.534.452,6.53,6.53,0,0,1,3.607,2.348,10.471,10.471,0,0,1,.929,5.113c-.029,1.121-.018,2.244-.031,3.365a5.228,5.228,0,0,1-2.607,4.808,3.43,3.43,0,0,0-.352.3ZM507.611,274.62a1.6,1.6,0,0,0,.411.13,13.813,13.813,0,0,0,1.512,0,2,2,0,0,0,2.032-1.745,5.248,5.248,0,0,0,.141-1.173c.016-1.032.025-2.065-.009-3.1a2.162,2.162,0,0,0-1.289-2.19,4.423,4.423,0,0,0-2.8-.12Z" transform="translate(-286.264 -224.046)" fill="#fff"/>
  <path id="Path_633" data-name="Path 633" d="M263.832,261.486c4.264.195,8.356-.37,12.48.55.226.145.522.35.832.531a5.368,5.368,0,0,1,2.732,4.864c.017,1.014.009,2.028,0,3.042a4.633,4.633,0,0,1-3.366,4.766c-.2.075-.4.158-.757.3.712.3,1.307.5,1.863.79.576.3,1.112.669,1.63.987a9.706,9.706,0,0,1,.535.982,6.79,6.79,0,0,1,.675,1.928,22.294,22.294,0,0,1-.139,6.057,5.26,5.26,0,0,1-3.746,4.252,14.321,14.321,0,0,1-3.609.644c-2.6.111-5.209.072-7.813.081-.39,0-.78-.072-1.266-.121-.019-.417-.053-.8-.053-1.19,0-4.6.038-9.2-.019-13.8-.027-2.231.06-4.458.024-6.688s-.007-4.491-.007-6.736Zm6.283,16.274a1.9,1.9,0,0,0-.168.448c-.012,2.49-.029,4.98-.008,7.469a3.951,3.951,0,0,0,.332,1.053c.546,0,1.01.013,1.473,0a2.326,2.326,0,0,0,2.5-2.3,41.914,41.914,0,0,0,.005-4.538,2.133,2.133,0,0,0-2.169-2.122C271.439,277.727,270.792,277.76,270.115,277.76Zm-.1-4.3a3.793,3.793,0,0,0,2.137.009,1.71,1.71,0,0,0,1.663-1.573,28.046,28.046,0,0,0,.129-3.87,1.862,1.862,0,0,0-1.042-1.794c-.55-.083-1.007-.179-1.468-.215s-.91-.007-1.42-.007Z" transform="translate(-263.809 -224.044)" fill="#fff"/>
  <path id="Path_634" data-name="Path 634" d="M297.377,261.505h6.29c.026.47.065.851.066,1.233.005,3.112-.072,6.226.03,9.335.065,2.014-.1,4.02-.041,6.032.061,1.989.083,3.985-.021,5.969a11.4,11.4,0,0,1-.655,3.267,6.4,6.4,0,0,1-5.132,4.035,13.665,13.665,0,0,1-6.013-.093,7.02,7.02,0,0,1-3.7-2.122,6.625,6.625,0,0,1-1.3-2.7,14.975,14.975,0,0,1-.464-3.639c-.043-6.8-.021-13.6-.019-20.4,0-.248.031-.5.055-.886,2.1-.028,4.173-.037,6.369.014v1.365q0,9.768,0,19.535c0,.791.028,1.583.079,2.373a2.028,2.028,0,0,0,1.4,1.644c1.568.4,2.7-.224,2.93-1.841a18,18,0,0,0,.13-4.1c-.059-.666.087-1.275.085-1.912-.018-5.32-.008-10.639-.014-15.959C297.454,262.267,297.4,261.879,297.377,261.505Z" transform="translate(-265.948 -224.046)" fill="#fff"/>
  <path id="Path_635" data-name="Path 635" d="M494.821,284.282a11.488,11.488,0,0,0-.348,1.289,6.64,6.64,0,0,1-5.428,5.76,12.677,12.677,0,0,1-6.936-.277,6.692,6.692,0,0,1-4.594-6,47.068,47.068,0,0,1-.169-5.4c-.01-4.2,0-8.4,0-12.6,0-1.446,0-2.893,0-4.339,0-.354.028-.708.048-1.161a40.749,40.749,0,0,1,6.152.048c.023.383.065.764.066,1.146,0,3.91-.037,7.822.017,11.732.034,2.449-.07,4.9-.008,7.343.024.938.082,1.878.187,2.809a1.911,1.911,0,0,0,1.887,1.877c1.433.1,2.133-.33,2.446-1.583a7.828,7.828,0,0,0,.233-1.822c.023-3.077.016-6.156,0-9.233,0-.5-.091-1-.134-1.435.05-.627.131-1.2.134-1.772.015-2.607.006-5.214.006-7.822v-1.249h6.187c.032.3.072.58.088.858.062,1.115.14,2.23.164,3.345.01.462-.153.926-.154,1.389q-.018,7.875,0,15.751A12.245,12.245,0,0,0,494.821,284.282Z" transform="translate(-284.016 -224.041)" fill="#fff"/>
  <path id="Path_636" data-name="Path 636" d="M551.687,261.562h9.089c1.567,9.863,3.129,19.691,4.7,29.591h-6.336c-.286-1.951-.576-3.929-.873-5.956h-4.687c-.292,1.989-.583,3.96-.883,6h-5.72C548.563,281.3,550.016,271.466,551.687,261.562Zm4.326,6.053-.225.005c-.56,4.334-1.12,8.668-1.693,13.1a12.379,12.379,0,0,0,3.6-.06C557.125,276.241,556.57,271.928,556.013,267.615Z" transform="translate(-290.605 -224.051)" fill="#fff"/>
  <path id="Path_637" data-name="Path 637" d="M389.121,289.963c-2.087-2.309-2.351-4.76-2.395-7.275a25.405,25.405,0,0,1,6.166-.012,11.622,11.622,0,0,0,.011,1.35,8.129,8.129,0,0,0,.339,1.793A1.739,1.739,0,0,0,395,286.856a1.633,1.633,0,0,0,1.69-.949,4.821,4.821,0,0,0,.2-3.494,4.933,4.933,0,0,0-2.135-2.773c-1.273-.828-2.543-1.666-3.761-2.572a9.155,9.155,0,0,1-3.217-3.88,8.451,8.451,0,0,1-.577-2.182,12.33,12.33,0,0,1,.33-5.473,6.428,6.428,0,0,1,5.171-4.273,11.435,11.435,0,0,1,5.787.254,5.7,5.7,0,0,1,3.683,3.3,8.806,8.806,0,0,1,.681,4.441,21.861,21.861,0,0,1-5.688.122c-.09-.565-.166-1.161-.281-1.749-.213-1.088-.706-1.6-1.56-1.662a1.9,1.9,0,0,0-1.992,1.354,3.5,3.5,0,0,0,.581,3.481,9.166,9.166,0,0,0,1.674,1.526c.9.666,1.887,1.216,2.781,1.889,1.066.8,2.092,1.66,3.091,2.544a3.754,3.754,0,0,1,.593,1.016,8,8,0,0,1,1.1,4.255,26.14,26.14,0,0,1-.291,4.419,6.333,6.333,0,0,1-5.631,4.976,12.178,12.178,0,0,1-5.468-.274A20.332,20.332,0,0,1,389.121,289.963Z" transform="translate(-275.441 -223.998)" fill="#fff"/>
  <path id="Path_638" data-name="Path 638" d="M325.665,269.4H319.7c-.033-.6-.028-1.137-.1-1.667-.164-1.235-.762-1.771-1.917-1.772a1.558,1.558,0,0,0-1.774,1.51,4.181,4.181,0,0,0,1.71,4.39c1.4.963,2.8,1.931,4.214,2.875a8.468,8.468,0,0,1,3.624,4.824,13.705,13.705,0,0,1,.1,6.871,6.088,6.088,0,0,1-4.285,4.643,11.738,11.738,0,0,1-7.353-.06,5.871,5.871,0,0,1-3.707-3.293,9.4,9.4,0,0,1-.707-5.17l5.888-.128c.088.891.12,1.827.284,2.739a1.992,1.992,0,0,0,3.948-.039,4.6,4.6,0,0,0-1.263-4.684,31.371,31.371,0,0,0-2.7-1.972c-1.022-.745-2.091-1.439-3.045-2.263a7.813,7.813,0,0,1-2.335-3.471,11.537,11.537,0,0,1-.23-6.711,6.074,6.074,0,0,1,4.205-4.453,10.867,10.867,0,0,1,6.713-.072,6.109,6.109,0,0,1,4.451,5.452C325.546,267.725,325.585,268.512,325.665,269.4Z" transform="translate(-268.124 -223.998)" fill="#fff"/>
  <path id="Path_639" data-name="Path 639" d="M424.484,269.4h-5.721a20.941,20.941,0,0,0-.325-2.072,1.821,1.821,0,0,0-3.538.044,3.673,3.673,0,0,0,1.036,3.871c.8.72,1.7,1.338,2.569,1.983,1.189.882,2.425,1.7,3.578,2.627a7.426,7.426,0,0,1,2.585,4.742,14.029,14.029,0,0,1-.172,5.91,6.49,6.49,0,0,1-5.594,4.905,12.774,12.774,0,0,1-5.262-.168c-3.289-.814-4.691-2.912-5.137-6.075a19.646,19.646,0,0,1-.017-2.6c1.99-.119,3.918-.053,5.93-.045.069.788.185,1.492.181,2.2a1.95,1.95,0,0,0,1.614,2.1,1.786,1.786,0,0,0,2.265-1.332,4.749,4.749,0,0,0-1.7-5.511c-1.346-1.031-2.809-1.909-4.186-2.9a9.728,9.728,0,0,1-3.706-5.2,5.132,5.132,0,0,1-.129-1.166,14.456,14.456,0,0,1,.174-4.425,6.589,6.589,0,0,1,5.7-5.061,12.264,12.264,0,0,1,4.626.072,6.023,6.023,0,0,1,4.822,4.342,12.614,12.614,0,0,1,.393,1.907A17.477,17.477,0,0,1,424.484,269.4Z" transform="translate(-277.496 -224.001)" fill="#fff"/>
  <path id="Path_640" data-name="Path 640" d="M368.175,291.144a4.108,4.108,0,0,1-.183-.919c.023-.79.151-1.578.154-2.368.016-4.6.056-9.2-.015-13.8-.028-1.869.053-3.734.029-5.6-.024-1.882-.005-3.765-.005-5.649v-1.3h1.289c2.606,0,5.213.058,7.815-.025,1.326-.043,2.634.033,3.935.073a15.359,15.359,0,0,1,.071,4.862H374.5c-.17,2.3-.061,4.482-.087,6.8h5.561v4.691c-1.764.1-3.561-.016-5.294.062-.1.109-.192.161-.193.214-.016,1.735-.021,3.469-.034,5.2,0,.458-.031.916-.039,1.375-.006.431,0,.862,0,1.443a36.979,36.979,0,0,0,3.7.067c1.186.016,2.371,0,3.639,0,0,1.654,0,3.192,0,4.731A120.106,120.106,0,0,1,368.175,291.144Z" transform="translate(-273.668 -224.043)" fill="#fff"/>
  <path id="Path_641" data-name="Path 641" d="M577.313,286.24h6.538c.068,1.7.041,3.267.021,4.906H571.086a4.538,4.538,0,0,1-.177-.94c.009-.684.125-1.365.127-2.048q.018-6.836,0-13.674c0-.716-.148-1.432-.149-2.149,0-.68.144-1.36.149-2.041.02-2.5.005-4.992.01-7.488,0-.386.034-.771.055-1.217h6.173c.014.407.039.824.039,1.24q0,9.764,0,19.528Z" transform="translate(-292.868 -224.054)" fill="#fff"/>
  <path id="Path_642" data-name="Path 642" d="M439.67,232.6c0,1.448-.072,2.9.018,4.341.107,1.724-.052,3.439-.039,5.159a10.173,10.173,0,0,1-.775,4.123,6.762,6.762,0,0,1-5.491,4.2,9.669,9.669,0,0,1-3.855-.2,6.39,6.39,0,0,1-4.581-4.061,9.166,9.166,0,0,1-.689-3.7c.016-1.809.049-3.62-.006-5.427-.092-2.991.078-5.979.016-8.969a8.338,8.338,0,0,1,1.326-4.84,6.409,6.409,0,0,1,3.971-2.8,9.978,9.978,0,0,1,4.4-.064,6.582,6.582,0,0,1,5.441,5.966c.3,2.062.252,4.176.359,6.267ZM427.289,235.3h-.014v6.728a2.167,2.167,0,0,0,0,.217,17.994,17.994,0,0,0,.269,2.358,4.443,4.443,0,0,0,8.675-.1,20.586,20.586,0,0,0,.4-4.172c0-4.263-.072-8.528-.148-12.79a5.467,5.467,0,0,0-1.053-3.122,4.362,4.362,0,0,0-7.44.471,6.217,6.217,0,0,0-.687,2.817Q427.289,231.509,427.289,235.3Z" transform="translate(-278.989 -220.132)" fill="#fff"/>
  <path id="Path_643" data-name="Path 643" d="M436.552,290.864c0-1.42,0-2.754,0-4.089a6.231,6.231,0,0,1,.1-.722,7.983,7.983,0,0,0,1.31.118,8.474,8.474,0,0,0,1.895-.306,1.511,1.511,0,0,0,1.029-1.417c.1-1.62.118-3.243.164-4.865.021-.71.041-1.421.042-2.13q.005-6.081,0-12.164v-3.552a25.726,25.726,0,0,1,6.2-.129c.018.36.053.741.053,1.124q.008,4.181,0,8.363,0,6.551,0,13.1a8.61,8.61,0,0,1-.844,3.775,5.386,5.386,0,0,1-2.723,2.684A9.728,9.728,0,0,1,436.552,290.864Z" transform="translate(-280.156 -224.044)" fill="#fff"/>
  <path id="Path_644" data-name="Path 644" d="M338.38,291.142h-6.22c-.218-.789-.306-27.52-.089-29.564,2.055-.189,4.143.043,6.309-.14Z" transform="translate(-270.257 -224.04)" fill="#fff"/>
  <path id="Path_645" data-name="Path 645" d="M458.324,220.513h3c.02.456.052.841.052,1.225,0,4.559-.033,9.12.024,13.679.016,1.323-.024,2.644-.023,3.965,0,1.339.019,2.679-.005,4.017a9.574,9.574,0,0,1-.779,3.684,5.436,5.436,0,0,1-4.077,3.247,9.052,9.052,0,0,1-6.61-.831,4.86,4.86,0,0,1-2.152-2.736,10.724,10.724,0,0,1-.623-3.161c-.083-2.856.023-5.718-.044-8.576-.053-2.228.062-4.453.024-6.68-.038-2.206-.008-4.415-.008-6.622v-1.148h2.922c.022.372.058.723.059,1.074.005,2.171-.059,4.345.023,6.512.061,1.615-.033,3.222-.023,4.834.01,1.664,0,3.329,0,4.993,0,1.629-.024,3.258.011,4.885a15.758,15.758,0,0,0,.236,2.256,3.8,3.8,0,0,0,3.638,2.951,3.7,3.7,0,0,0,4.05-2.721,12.024,12.024,0,0,0,.328-4.191c-.013-.418-.006-.838,0-1.258,0-.289.028-.578.028-.866q0-7.763,0-15.524C458.372,222.566,458.343,221.612,458.324,220.513Z" transform="translate(-281.151 -220.167)" fill="#fff"/>
  <path id="Path_646" data-name="Path 646" d="M477.918,242.175h3c.034.381.072.659.082.938.016.47-.029.946.03,1.411.391,3.082,2.424,3.868,4.826,3.423a3.033,3.033,0,0,0,2.347-2.334,9.537,9.537,0,0,0,.087-4.616c-.45-2.183-2.07-3.491-3.7-4.778a24.472,24.472,0,0,1-4.34-3.886,8.187,8.187,0,0,1-1.773-4.688,9.794,9.794,0,0,1,.6-4.365,4.362,4.362,0,0,1,2.762-2.659,9.525,9.525,0,0,1,4.6-.33,5.181,5.181,0,0,1,4.329,4.546c.127.848.164,1.71.245,2.6a8.464,8.464,0,0,1-2.694.144c-.1-.741-.2-1.41-.288-2.079a3.116,3.116,0,0,0-3.091-2.916,3.072,3.072,0,0,0-3.521,2.632A5.9,5.9,0,0,0,483.021,231c.956.921,2.078,1.669,3.1,2.523,2.136,1.787,4.4,3.5,4.991,6.463a13.963,13.963,0,0,1-.289,6.96,4.275,4.275,0,0,1-2.207,2.793,8.213,8.213,0,0,1-4.427.788,9.751,9.751,0,0,1-1.6-.267,5.754,5.754,0,0,1-4.321-4.913C478.08,244.3,478.028,243.219,477.918,242.175Z" transform="translate(-284.07 -220.133)" fill="#fff"/>
  <path id="Path_647" data-name="Path 647" d="M356.965,242.246h2.7c.081.739.17,1.413.227,2.09.25,2.931,2.052,4.018,4.653,3.655a3.077,3.077,0,0,0,2.543-2.4,9.782,9.782,0,0,0,.1-4.51,5.386,5.386,0,0,0-1.79-3.152c-.836-.737-1.74-1.4-2.573-2.138-1.422-1.266-3.053-2.333-4.093-3.979a9.082,9.082,0,0,1-.835-8.318,4.9,4.9,0,0,1,3.749-3.147,8.744,8.744,0,0,1,4.083.043,5.088,5.088,0,0,1,3.916,4.545,16.909,16.909,0,0,1,.019,2.5,5.923,5.923,0,0,1-2.48.09c-.091-.638-.207-1.267-.267-1.9a3.014,3.014,0,0,0-1.823-2.737,3.6,3.6,0,0,0-3.793.427,3.156,3.156,0,0,0-1.124,2.281,6.069,6.069,0,0,0,1.769,5.458c.877.793,1.877,1.452,2.761,2.24,1.5,1.337,3.223,2.46,4.287,4.24a9.5,9.5,0,0,1,1.159,3.576,18.019,18.019,0,0,1-.156,4.846,5.388,5.388,0,0,1-1.953,3.259,4.952,4.952,0,0,1-3.227,1.284,9.225,9.225,0,0,1-4.141-.526,5.345,5.345,0,0,1-3.183-3.35A10.172,10.172,0,0,1,356.965,242.246Z" transform="translate(-272.62 -220.131)" fill="#fff"/>
  <path id="Path_648" data-name="Path 648" d="M383.08,250.121c-.28.029-.488.067-.7.069-.683.008-1.365,0-2.168,0-.107-3.061-.034-6.048-.047-9.034-.014-3.036,0-6.072,0-9.109V222.9H375.22V220.54h13.059v2.3h-4.947a8.418,8.418,0,0,0-.147,1.054c-.01,3.364-.1,6.731.031,10.09.066,1.731-.158,3.442-.082,5.169s.017,3.471.016,5.207,0,3.473-.005,5.209C383.144,249.71,383.112,249.852,383.08,250.121Z" transform="translate(-274.352 -220.17)" fill="#fff"/>
  <path id="Path_649" data-name="Path 649" d="M408.3,220.565h2.848a6.767,6.767,0,0,1,.1.808c.014.976.042,1.955,0,2.93-.076,1.721.113,3.438.032,5.162-.082,1.768-.023,3.544-.023,5.316q0,2.6,0,5.209c0,1.736-.015,3.473.006,5.209.01.818.09,1.636.148,2.614,1.286.07,2.608.022,3.927.03s2.661,0,4.075,0c.024.456.057.806.058,1.156s-.028.706-.046,1.126H408.3Z" transform="translate(-277.482 -220.172)" fill="#fff"/>
  <path id="Path_650" data-name="Path 650" d="M469.239,220.558h2.847a6.406,6.406,0,0,1,.115.813c.015.94-.014,1.88.009,2.82.086,3.494-.009,6.987,0,10.481s0,7.015.007,10.522c0,.573.078,1.144.11,1.592-.064,1.158-.121,2.2-.182,3.274a13.89,13.89,0,0,1-2.9.145Z" transform="translate(-283.249 -220.171)" fill="#fff"/>
  <path id="Path_651" data-name="Path 651" d="M390.234,250.468l1.586-1.717c.5.1.855.162,1.2.253a2.069,2.069,0,0,1,1.509,2.118,2.11,2.11,0,0,1-1.768,1.923,2.18,2.18,0,0,1-2.187-1.284A13.121,13.121,0,0,1,390.234,250.468Z" transform="translate(-275.773 -222.839)" fill="#fff"/>
</svg>
